# This file uses centimeters as units for non-parametric coordinates.

v 23.628557 0.066376 0.607270
v 24.303825 0.066376 0.607270
v 24.979095 0.066376 0.607270
v 25.654366 0.066376 0.607270
v 26.329636 0.066376 0.607270
v 27.004904 0.066376 0.607270
v 27.680174 0.066376 0.607270
v 28.355440 0.066376 0.607270
v 29.030710 0.066376 0.607270
v 29.705978 0.066376 0.607270
v 30.381248 0.066376 0.607270
v 31.056517 0.066376 0.607270
v 31.731789 0.066376 0.607270
v 32.407051 0.066376 0.607270
v 33.082321 0.066376 0.607270
v 23.628557 0.066376 -0.067984
v 24.303825 0.066376 -0.067984
v 24.979095 0.066376 -0.067984
v 25.654366 0.066376 -0.067984
v 26.329636 0.066376 -0.067984
v 27.004904 0.066376 -0.067984
v 27.680174 0.066376 -0.067984
v 28.355440 0.066376 -0.067984
v 29.030710 0.066376 -0.067984
v 29.705978 0.066376 -0.067984
v 30.381248 0.066376 -0.067984
v 31.056517 0.066376 -0.067984
v 31.731789 0.066376 -0.067984
v 32.407051 0.066376 -0.067984
v 33.082321 0.066376 -0.067984
v 23.628557 0.066376 -0.743257
v 24.303825 0.066376 -0.743257
v 24.979095 0.066376 -0.743257
v 25.654366 0.066376 -0.743257
v 26.329636 0.066376 -0.743257
v 27.004904 0.066376 -0.743257
v 27.680174 0.066376 -0.743257
v 28.355440 0.066376 -0.743257
v 29.030710 0.066376 -0.743257
v 29.705978 0.066376 -0.743257
v 30.381248 0.066376 -0.743257
v 31.056517 0.066376 -0.743257
v 31.731789 0.066376 -0.743257
v 32.407051 0.066376 -0.743257
v 33.082321 0.066376 -0.743257
v 23.628557 0.066376 -1.418525
v 24.303825 0.066376 -1.418525
v 24.979095 0.066376 -1.418525
v 25.654366 0.066376 -1.418525
v 26.329636 0.066376 -1.418525
v 27.004904 0.066376 -1.418525
v 27.680174 0.066376 -1.418525
v 28.355440 0.066376 -1.418525
v 29.030710 0.066376 -1.418525
v 29.705978 0.066376 -1.418525
v 30.381248 0.066376 -1.418525
v 31.056517 0.066376 -1.418525
v 31.731789 0.066376 -1.418525
v 32.407051 0.066376 -1.418525
v 33.082321 0.066376 -1.418525
v 23.628557 0.066376 -2.093795
v 24.303825 0.066376 -2.093795
v 24.979095 0.066376 -2.093795
v 25.654366 0.066376 -2.093795
v 26.329636 0.066376 -2.093795
v 27.004904 0.066376 -2.093795
v 27.680174 0.066376 -2.093795
v 28.355440 0.066376 -2.093795
v 29.030710 0.066376 -2.093795
v 29.705978 0.066376 -2.093795
v 30.381248 0.066376 -2.093795
v 31.056517 0.066376 -2.093795
v 31.731789 0.066376 -2.093795
v 32.407051 0.066376 -2.093795
v 33.082321 0.066376 -2.093795
v 26.329636 0.066376 -2.769063
v 27.004904 0.066376 -2.769063
v 27.680174 0.066376 -2.769063
v 28.355440 0.066376 -2.769063
v 29.030710 0.066376 -2.769063
v 29.705978 0.066376 -2.769063
v 30.381248 0.066376 -2.769063
v 31.056517 0.066376 -2.769063
v 31.731789 0.066376 -2.769063
v 32.407051 0.066376 -2.769063
v 33.082321 0.066376 -2.769063
v 26.329636 0.066376 -3.444331
v 27.004904 0.066376 -3.444331
v 27.680174 0.066376 -3.444331
v 28.355440 0.066376 -3.444331
v 29.030710 0.066376 -3.444331
v 29.705978 0.066376 -3.444331
v 30.381248 0.066376 -3.444331
v 31.056517 0.066376 -3.444331
v 31.731789 0.066376 -3.444331
v 32.407051 0.066376 -3.444331
v 33.082321 0.066376 -3.444331
v 26.329636 0.066376 -4.119601
v 27.004904 0.066376 -4.119601
v 27.680174 0.066376 -4.119601
v 28.355440 0.066376 -4.119601
v 29.030710 0.066376 -4.119601
v 29.705978 0.066376 -4.119601
v 30.381248 0.066376 -4.119601
v 31.056517 0.066376 -4.119601
v 31.731789 0.066376 -4.119601
v 32.407051 0.066376 -4.119601
v 33.082321 0.066376 -4.119601
v 22.953287 0.066376 -0.067984
v 22.953287 0.066376 0.607270
v 22.953287 0.066376 -0.743257
v 22.953287 0.066376 -1.418525
v 22.953287 0.066376 -2.093795
v 23.628557 0.066376 -2.769063
v 22.953287 0.066376 -2.769063
v 24.303825 0.066376 -2.769063
v 24.979095 0.066376 -2.769063
v 25.654366 0.066376 -2.769063
v 25.654366 0.066376 -3.444331
v 25.654366 0.066376 -4.119601
v 26.329636 0.066376 -4.794867
v 25.654366 0.066376 -4.794867
v 27.004904 0.066376 -4.794867
v 27.680174 0.066376 -4.794867
v 28.355440 0.066376 -4.794867
v 29.030710 0.066376 -4.794867
v 29.705978 0.066376 -4.794867
v 30.381248 0.066376 -4.794867
v 31.056517 0.066376 -4.794867
v 31.731789 0.066376 -4.794867
v 32.407051 0.066376 -4.794867
v 33.082321 0.066376 -4.794867
vt 0.700000 0.000000
vt 0.720000 0.000000
vt 0.720000 0.020000
vt 0.700000 0.020000
vt 0.740000 0.000000
vt 0.740000 0.020000
vt 0.760000 0.000000
vt 0.760000 0.020000
vt 0.780000 0.000000
vt 0.780000 0.020000
vt 0.800000 0.000000
vt 0.800000 0.020000
vt 0.820000 0.000000
vt 0.820000 0.020000
vt 0.840000 0.000000
vt 0.840000 0.020000
vt 0.860000 0.000000
vt 0.860000 0.020000
vt 0.880000 0.000000
vt 0.880000 0.020000
vt 0.900000 0.000000
vt 0.900000 0.020000
vt 0.920000 0.000000
vt 0.920000 0.020000
vt 0.940000 0.000000
vt 0.940000 0.020000
vt 0.960000 0.000000
vt 0.960000 0.020000
vt 0.980000 0.000000
vt 0.980000 0.020000
vt 1.000000 0.000000
vt 1.000000 0.020000
vt 0.720000 0.040000
vt 0.700000 0.040000
vt 0.740000 0.040000
vt 0.760000 0.040000
vt 0.780000 0.040000
vt 0.800000 0.040000
vt 0.820000 0.040000
vt 0.840000 0.040000
vt 0.860000 0.040000
vt 0.880000 0.040000
vt 0.900000 0.040000
vt 0.920000 0.040000
vt 0.940000 0.040000
vt 0.960000 0.040000
vt 0.980000 0.040000
vt 1.000000 0.040000
vt 0.720000 0.060000
vt 0.700000 0.060000
vt 0.740000 0.060000
vt 0.760000 0.060000
vt 0.780000 0.060000
vt 0.800000 0.060000
vt 0.820000 0.060000
vt 0.840000 0.060000
vt 0.860000 0.060000
vt 0.880000 0.060000
vt 0.900000 0.060000
vt 0.920000 0.060000
vt 0.940000 0.060000
vt 0.960000 0.060000
vt 0.980000 0.060000
vt 1.000000 0.060000
vt 0.720000 0.080000
vt 0.700000 0.080000
vt 0.740000 0.080000
vt 0.760000 0.080000
vt 0.780000 0.080000
vt 0.800000 0.080000
vt 0.820000 0.080000
vt 0.840000 0.080000
vt 0.860000 0.080000
vt 0.880000 0.080000
vt 0.900000 0.080000
vt 0.920000 0.080000
vt 0.940000 0.080000
vt 0.960000 0.080000
vt 0.980000 0.080000
vt 1.000000 0.080000
vt 0.720000 0.100000
vt 0.700000 0.100000
vt 0.740000 0.100000
vt 0.760000 0.100000
vt 0.780000 0.100000
vt 0.800000 0.100000
vt 0.820000 0.100000
vt 0.840000 0.100000
vt 0.860000 0.100000
vt 0.880000 0.100000
vt 0.900000 0.100000
vt 0.920000 0.100000
vt 0.940000 0.100000
vt 0.960000 0.100000
vt 0.980000 0.100000
vt 1.000000 0.100000
vt 0.800000 0.120000
vt 0.780000 0.120000
vt 0.820000 0.120000
vt 0.840000 0.120000
vt 0.860000 0.120000
vt 0.880000 0.120000
vt 0.900000 0.120000
vt 0.920000 0.120000
vt 0.940000 0.120000
vt 0.960000 0.120000
vt 0.980000 0.120000
vt 1.000000 0.120000
vt 0.800000 0.140000
vt 0.780000 0.140000
vt 0.820000 0.140000
vt 0.840000 0.140000
vt 0.860000 0.140000
vt 0.880000 0.140000
vt 0.900000 0.140000
vt 0.920000 0.140000
vt 0.940000 0.140000
vt 0.960000 0.140000
vt 0.980000 0.140000
vt 1.000000 0.140000
vt 0.800000 0.160000
vt 0.780000 0.160000
vt 0.820000 0.160000
vt 0.840000 0.160000
vt 0.860000 0.160000
vt 0.880000 0.160000
vt 0.900000 0.160000
vt 0.920000 0.160000
vt 0.940000 0.160000
vt 0.960000 0.160000
vt 0.980000 0.160000
vt 1.000000 0.160000
vn 0.000000 1.000000 0.000000
vn 0.000000 1.000000 0.000000
vn 0.000000 1.000000 0.000000
vn 0.000000 1.000000 0.000000
vn 0.000000 1.000000 0.000000
vn 0.000000 1.000000 0.000000
vn 0.000000 1.000000 0.000000
vn 0.000000 1.000000 0.000000
vn 0.000000 1.000000 0.000000
vn 0.000000 1.000000 0.000000
vn 0.000000 1.000000 0.000000
vn 0.000000 1.000000 0.000000
vn 0.000000 1.000000 0.000000
vn 0.000000 1.000000 0.000000
vn 0.000000 1.000000 0.000000
vn 0.000000 1.000000 0.000000
vn 0.000000 1.000000 0.000000
vn 0.000000 1.000000 0.000000
vn 0.000000 1.000000 0.000000
vn 0.000000 1.000000 0.000000
vn 0.000000 1.000000 0.000000
vn 0.000000 1.000000 0.000000
vn 0.000000 1.000000 0.000000
vn 0.000000 1.000000 0.000000
vn 0.000000 1.000000 0.000000
vn 0.000000 1.000000 0.000000
vn 0.000000 1.000000 0.000000
vn 0.000000 1.000000 0.000000
vn 0.000000 1.000000 0.000000
vn 0.000000 1.000000 0.000000
vn 0.000000 1.000000 0.000000
vn 0.000000 1.000000 0.000000
vn 0.000000 1.000000 0.000000
vn 0.000000 1.000000 0.000000
vn 0.000000 1.000000 0.000000
vn 0.000000 1.000000 0.000000
vn 0.000000 1.000000 0.000000
vn 0.000000 1.000000 0.000000
vn 0.000000 1.000000 0.000000
vn 0.000000 1.000000 0.000000
vn 0.000000 1.000000 0.000000
vn 0.000000 1.000000 0.000000
vn 0.000000 1.000000 0.000000
vn 0.000000 1.000000 0.000000
vn 0.000000 1.000000 0.000000
vn 0.000000 1.000000 0.000000
vn 0.000000 1.000000 0.000000
vn 0.000000 1.000000 0.000000
vn 0.000000 1.000000 0.000000
vn 0.000000 1.000000 0.000000
vn 0.000000 1.000000 0.000000
vn 0.000000 1.000000 0.000000
vn 0.000000 1.000000 0.000000
vn 0.000000 1.000000 0.000000
vn 0.000000 1.000000 0.000000
vn 0.000000 1.000000 0.000000
vn 0.000000 1.000000 0.000000
vn 0.000000 1.000000 0.000000
vn 0.000000 1.000000 0.000000
vn 0.000000 1.000000 0.000000
vn 0.000000 1.000000 0.000000
vn 0.000000 1.000000 0.000000
vn 0.000000 1.000000 0.000000
vn 0.000000 1.000000 0.000000
vn 0.000000 1.000000 0.000000
vn 0.000000 1.000000 0.000000
vn 0.000000 1.000000 0.000000
vn 0.000000 1.000000 0.000000
vn 0.000000 1.000000 0.000000
vn 0.000000 1.000000 0.000000
vn 0.000000 1.000000 0.000000
vn 0.000000 1.000000 0.000000
vn 0.000000 1.000000 0.000000
vn 0.000000 1.000000 0.000000
vn 0.000000 1.000000 0.000000
vn 0.000000 1.000000 0.000000
vn 0.000000 1.000000 0.000000
vn 0.000000 1.000000 0.000000
vn 0.000000 1.000000 0.000000
vn 0.000000 1.000000 0.000000
vn 0.000000 1.000000 0.000000
vn 0.000000 1.000000 0.000000
vn 0.000000 1.000000 0.000000
vn 0.000000 1.000000 0.000000
vn 0.000000 1.000000 0.000000
vn 0.000000 1.000000 0.000000
vn 0.000000 1.000000 0.000000
vn 0.000000 1.000000 0.000000
vn 0.000000 1.000000 0.000000
vn 0.000000 1.000000 0.000000
vn 0.000000 1.000000 0.000000
vn 0.000000 1.000000 0.000000
vn 0.000000 1.000000 0.000000
vn 0.000000 1.000000 0.000000
vn 0.000000 1.000000 0.000000
vn 0.000000 1.000000 0.000000
vn 0.000000 1.000000 0.000000
vn 0.000000 1.000000 0.000000
vn 0.000000 1.000000 0.000000
vn 0.000000 1.000000 0.000000
vn 0.000000 1.000000 0.000000
vn 0.000000 1.000000 0.000000
vn 0.000000 1.000000 0.000000
vn 0.000000 1.000000 0.000000
vn 0.000000 1.000000 0.000000
vn 0.000000 1.000000 0.000000
vn 0.000000 1.000000 0.000000
vn 0.000000 1.000000 0.000000
vn 0.000000 1.000000 0.000000
vn 0.000000 1.000000 0.000000
vn 0.000000 1.000000 0.000000
vn 0.000000 1.000000 0.000000
vn 0.000000 1.000000 0.000000
vn 0.000000 1.000000 0.000000
vn 0.000000 1.000000 0.000000
vn 0.000000 1.000000 0.000000
vn 0.000000 1.000000 0.000000
vn 0.000000 1.000000 0.000000
vn 0.000000 1.000000 0.000000
vn 0.000000 1.000000 0.000000
vn 0.000000 1.000000 0.000000
vn 0.000000 1.000000 0.000000
vn 0.000000 1.000000 0.000000
vn 0.000000 1.000000 0.000000
vn 0.000000 1.000000 0.000000
vn 0.000000 1.000000 0.000000
vn 0.000000 1.000000 0.000000
vn 0.000000 1.000000 0.000000
vn 0.000000 1.000000 0.000000
vn 0.000000 1.000000 0.000000
vn 0.000000 1.000000 0.000000
vn 0.000000 1.000000 0.000000
vn 0.000000 1.000000 0.000000
vn 0.000000 1.000000 0.000000
vn 0.000000 1.000000 0.000000
vn 0.000000 1.000000 0.000000
vn 0.000000 1.000000 0.000000
vn 0.000000 1.000000 0.000000
vn 0.000000 1.000000 0.000000
vn 0.000000 1.000000 0.000000
vn 0.000000 1.000000 0.000000
vn 0.000000 1.000000 0.000000
vn 0.000000 1.000000 0.000000
vn 0.000000 1.000000 0.000000
vn 0.000000 1.000000 0.000000
vn 0.000000 1.000000 0.000000
vn 0.000000 1.000000 0.000000
vn 0.000000 1.000000 0.000000
vn 0.000000 1.000000 0.000000
vn 0.000000 1.000000 0.000000
vn 0.000000 1.000000 0.000000
vn 0.000000 1.000000 0.000000
vn 0.000000 1.000000 0.000000
vn 0.000000 1.000000 0.000000
vn 0.000000 1.000000 0.000000
vn 0.000000 1.000000 0.000000
vn 0.000000 1.000000 0.000000
vn 0.000000 1.000000 0.000000
vn 0.000000 1.000000 0.000000
vn 0.000000 1.000000 0.000000
vn 0.000000 1.000000 0.000000
vn 0.000000 1.000000 0.000000
vn 0.000000 1.000000 0.000000
vn 0.000000 1.000000 0.000000
vn 0.000000 1.000000 0.000000
vn 0.000000 1.000000 0.000000
vn 0.000000 1.000000 0.000000
vn 0.000000 1.000000 0.000000
vn 0.000000 1.000000 0.000000
vn 0.000000 1.000000 0.000000
vn 0.000000 1.000000 0.000000
vn 0.000000 1.000000 0.000000
vn 0.000000 1.000000 0.000000
vn 0.000000 1.000000 0.000000
vn 0.000000 1.000000 0.000000
vn 0.000000 1.000000 0.000000
vn 0.000000 1.000000 0.000000
vn 0.000000 1.000000 0.000000
vn 0.000000 1.000000 0.000000
vn 0.000000 1.000000 0.000000
vn 0.000000 1.000000 0.000000
vn 0.000000 1.000000 0.000000
vn 0.000000 1.000000 0.000000
vn 0.000000 1.000000 0.000000
vn 0.000000 1.000000 0.000000
vn 0.000000 1.000000 0.000000
vn 0.000000 1.000000 0.000000
vn 0.000000 1.000000 0.000000
vn 0.000000 1.000000 0.000000
vn 0.000000 1.000000 0.000000
vn 0.000000 1.000000 0.000000
vn 0.000000 1.000000 0.000000
vn 0.000000 1.000000 0.000000
vn 0.000000 1.000000 0.000000
vn 0.000000 1.000000 0.000000
vn 0.000000 1.000000 0.000000
vn 0.000000 1.000000 0.000000
vn 0.000000 1.000000 0.000000
vn 0.000000 1.000000 0.000000
vn 0.000000 1.000000 0.000000
vn 0.000000 1.000000 0.000000
vn 0.000000 1.000000 0.000000
vn 0.000000 1.000000 0.000000
vn 0.000000 1.000000 0.000000
vn 0.000000 1.000000 0.000000
vn 0.000000 1.000000 0.000000
vn 0.000000 1.000000 0.000000
vn 0.000000 1.000000 0.000000
vn 0.000000 1.000000 0.000000
vn 0.000000 1.000000 0.000000
vn 0.000000 1.000000 0.000000
vn 0.000000 1.000000 0.000000
vn 0.000000 1.000000 0.000000
vn 0.000000 1.000000 0.000000
vn 0.000000 1.000000 0.000000
vn 0.000000 1.000000 0.000000
vn 0.000000 1.000000 0.000000
vn 0.000000 1.000000 0.000000
vn 0.000000 1.000000 0.000000
vn 0.000000 1.000000 0.000000
vn 0.000000 1.000000 0.000000
vn 0.000000 1.000000 0.000000
vn 0.000000 1.000000 0.000000
vn 0.000000 1.000000 0.000000
vn 0.000000 1.000000 0.000000
vn 0.000000 1.000000 0.000000
vn 0.000000 1.000000 0.000000
vn 0.000000 1.000000 0.000000
vn 0.000000 1.000000 0.000000
vn 0.000000 1.000000 0.000000
vn 0.000000 1.000000 0.000000
vn 0.000000 1.000000 0.000000
vn 0.000000 1.000000 0.000000
vn 0.000000 1.000000 0.000000
vn 0.000000 1.000000 0.000000
vn 0.000000 1.000000 0.000000
vn 0.000000 1.000000 0.000000
vn 0.000000 1.000000 0.000000
vn 0.000000 1.000000 0.000000
vn 0.000000 1.000000 0.000000
vn 0.000000 1.000000 0.000000
vn 0.000000 1.000000 0.000000
vn 0.000000 1.000000 0.000000
vn 0.000000 1.000000 0.000000
vn 0.000000 1.000000 0.000000
vn 0.000000 1.000000 0.000000
vn 0.000000 1.000000 0.000000
vn 0.000000 1.000000 0.000000
vn 0.000000 1.000000 0.000000
vn 0.000000 1.000000 0.000000
vn 0.000000 1.000000 0.000000
vn 0.000000 1.000000 0.000000
vn 0.000000 1.000000 0.000000
vn 0.000000 1.000000 0.000000
vn 0.000000 1.000000 0.000000
vn 0.000000 1.000000 0.000000
vn 0.000000 1.000000 0.000000
vn 0.000000 1.000000 0.000000
vn 0.000000 1.000000 0.000000
vn 0.000000 1.000000 0.000000
vn 0.000000 1.000000 0.000000
vn 0.000000 1.000000 0.000000
vn 0.000000 1.000000 0.000000
vn 0.000000 1.000000 0.000000
vn 0.000000 1.000000 0.000000
vn 0.000000 1.000000 0.000000
vn 0.000000 1.000000 0.000000
vn 0.000000 1.000000 0.000000
vn 0.000000 1.000000 0.000000
vn 0.000000 1.000000 0.000000
vn 0.000000 1.000000 0.000000
vn 0.000000 1.000000 0.000000
vn 0.000000 1.000000 0.000000
vn 0.000000 1.000000 0.000000
vn 0.000000 1.000000 0.000000
vn 0.000000 1.000000 0.000000
vn 0.000000 1.000000 0.000000
vn 0.000000 1.000000 0.000000
vn 0.000000 1.000000 0.000000
vn 0.000000 1.000000 0.000000
vn 0.000000 1.000000 0.000000
vn 0.000000 1.000000 0.000000
vn 0.000000 1.000000 0.000000
vn 0.000000 1.000000 0.000000
vn 0.000000 1.000000 0.000000
vn 0.000000 1.000000 0.000000
vn 0.000000 1.000000 0.000000
vn 0.000000 1.000000 0.000000
vn 0.000000 1.000000 0.000000
vn 0.000000 1.000000 0.000000
vn 0.000000 1.000000 0.000000
vn 0.000000 1.000000 0.000000
vn 0.000000 1.000000 0.000000
vn 0.000000 1.000000 0.000000
vn 0.000000 1.000000 0.000000
vn 0.000000 1.000000 0.000000
vn 0.000000 1.000000 0.000000
vn 0.000000 1.000000 0.000000
vn 0.000000 1.000000 0.000000
vn 0.000000 1.000000 0.000000
vn 0.000000 1.000000 0.000000
vn 0.000000 1.000000 0.000000
vn 0.000000 1.000000 0.000000
vn 0.000000 1.000000 0.000000
vn 0.000000 1.000000 0.000000
vn 0.000000 1.000000 0.000000
vn 0.000000 1.000000 0.000000
vn 0.000000 1.000000 0.000000
vn 0.000000 1.000000 0.000000
vn 0.000000 1.000000 0.000000
vn 0.000000 1.000000 0.000000
vn 0.000000 1.000000 0.000000
vn 0.000000 1.000000 0.000000
vn 0.000000 1.000000 0.000000
vn 0.000000 1.000000 0.000000
vn 0.000000 1.000000 0.000000
vn 0.000000 1.000000 0.000000
vn 0.000000 1.000000 0.000000
vn 0.000000 1.000000 0.000000
vn 0.000000 1.000000 0.000000
vn 0.000000 1.000000 0.000000
vn 0.000000 1.000000 0.000000
vn 0.000000 1.000000 0.000000
vn 0.000000 1.000000 0.000000
vn 0.000000 1.000000 0.000000
vn 0.000000 1.000000 0.000000
vn 0.000000 1.000000 0.000000
vn 0.000000 1.000000 0.000000
vn 0.000000 1.000000 0.000000
vn 0.000000 1.000000 0.000000
vn 0.000000 1.000000 0.000000
vn 0.000000 1.000000 0.000000
vn 0.000000 1.000000 0.000000
vn 0.000000 1.000000 0.000000
vn 0.000000 1.000000 0.000000
vn 0.000000 1.000000 0.000000
vn 0.000000 1.000000 0.000000
vn 0.000000 1.000000 0.000000
vn 0.000000 1.000000 0.000000
vn 0.000000 1.000000 0.000000
vn 0.000000 1.000000 0.000000
vn 0.000000 1.000000 0.000000
vn 0.000000 1.000000 0.000000
vn 0.000000 1.000000 0.000000
vn 0.000000 1.000000 0.000000
vn 0.000000 1.000000 0.000000
vn 0.000000 1.000000 0.000000
vn 0.000000 1.000000 0.000000
vn 0.000000 1.000000 0.000000
vn 0.000000 1.000000 0.000000
vn 0.000000 1.000000 0.000000
vn 0.000000 1.000000 0.000000
vn 0.000000 1.000000 0.000000
vn 0.000000 1.000000 0.000000
vn 0.000000 1.000000 0.000000
vn 0.000000 1.000000 0.000000
vn 0.000000 1.000000 0.000000
vn 0.000000 1.000000 0.000000
vn 0.000000 1.000000 0.000000
vn 0.000000 1.000000 0.000000
vn 0.000000 1.000000 0.000000
vn 0.000000 1.000000 0.000000
vn 0.000000 1.000000 0.000000
vn 0.000000 1.000000 0.000000
vn 0.000000 1.000000 0.000000
vn 0.000000 1.000000 0.000000
vn 0.000000 1.000000 0.000000
vn 0.000000 1.000000 0.000000
vn 0.000000 1.000000 0.000000
vn 0.000000 1.000000 0.000000
vn 0.000000 1.000000 0.000000
vn 0.000000 1.000000 0.000000
vn 0.000000 1.000000 0.000000
vn 0.000000 1.000000 0.000000
vn 0.000000 1.000000 0.000000
vn 0.000000 1.000000 0.000000
vn 0.000000 1.000000 0.000000
vn 0.000000 1.000000 0.000000
vn 0.000000 1.000000 0.000000
vn 0.000000 1.000000 0.000000
vn 0.000000 1.000000 0.000000
vn 0.000000 1.000000 0.000000
vn 0.000000 1.000000 0.000000
vn 0.000000 1.000000 0.000000
vn 0.000000 1.000000 0.000000
vn 0.000000 1.000000 0.000000
vn 0.000000 1.000000 0.000000
vn 0.000000 1.000000 0.000000
vn 0.000000 1.000000 0.000000
vn 0.000000 1.000000 0.000000
vn 0.000000 1.000000 0.000000
vn 0.000000 1.000000 0.000000
vn 0.000000 1.000000 0.000000
vn 0.000000 1.000000 0.000000
vn 0.000000 1.000000 0.000000
vn 0.000000 1.000000 0.000000
vn 0.000000 1.000000 0.000000
vn 0.000000 1.000000 0.000000
vn 0.000000 1.000000 0.000000
vn 0.000000 1.000000 0.000000
vn 0.000000 1.000000 0.000000
vn 0.000000 1.000000 0.000000
vn 0.000000 1.000000 0.000000
vn 0.000000 1.000000 0.000000
vn 0.000000 1.000000 0.000000
vn 0.000000 1.000000 0.000000
vn 0.000000 1.000000 0.000000
vn 0.000000 1.000000 0.000000
vn 0.000000 1.000000 0.000000
vn 0.000000 1.000000 0.000000
vn 0.000000 1.000000 0.000000
vn 0.000000 1.000000 0.000000
vn 0.000000 1.000000 0.000000
vn 0.000000 1.000000 0.000000
vn 0.000000 1.000000 0.000000
vn 0.000000 1.000000 0.000000
vn 0.000000 1.000000 0.000000
vn 0.000000 1.000000 0.000000
vn 0.000000 1.000000 0.000000
vn 0.000000 1.000000 0.000000
vn 0.000000 1.000000 0.000000
vn 0.000000 1.000000 0.000000
vn 0.000000 1.000000 0.000000
vn 0.000000 1.000000 0.000000
vn 0.000000 1.000000 0.000000
vn 0.000000 1.000000 0.000000
vn 0.000000 1.000000 0.000000
vn 0.000000 1.000000 0.000000
vn 0.000000 1.000000 0.000000
vn 0.000000 1.000000 0.000000
vn 0.000000 1.000000 0.000000
vn 0.000000 1.000000 0.000000
f 110/1/1 1/2/2 16/3/3 109/4/4
f 1/2/5 2/5/6 17/6/7 16/3/8
f 2/5/9 3/7/10 18/8/11 17/6/12
f 3/7/13 4/9/14 19/10/15 18/8/16
f 4/9/17 5/11/18 20/12/19 19/10/20
f 5/11/21 6/13/22 21/14/23 20/12/24
f 6/13/25 7/15/26 22/16/27 21/14/28
f 7/15/29 8/17/30 23/18/31 22/16/32
f 8/17/33 9/19/34 24/20/35 23/18/36
f 9/19/37 10/21/38 25/22/39 24/20/40
f 10/21/41 11/23/42 26/24/43 25/22/44
f 11/23/45 12/25/46 27/26/47 26/24/48
f 12/25/49 13/27/50 28/28/51 27/26/52
f 13/27/53 14/29/54 29/30/55 28/28/56
f 14/29/57 15/31/58 30/32/59 29/30/60
f 109/4/61 16/3/62 31/33/63 111/34/64
f 16/3/65 17/6/66 32/35/67 31/33/68
f 17/6/69 18/8/70 33/36/71 32/35/72
f 18/8/73 19/10/74 34/37/75 33/36/76
f 19/10/77 20/12/78 35/38/79 34/37/80
f 20/12/81 21/14/82 36/39/83 35/38/84
f 21/14/85 22/16/86 37/40/87 36/39/88
f 22/16/89 23/18/90 38/41/91 37/40/92
f 23/18/93 24/20/94 39/42/95 38/41/96
f 24/20/97 25/22/98 40/43/99 39/42/100
f 25/22/101 26/24/102 41/44/103 40/43/104
f 26/24/105 27/26/106 42/45/107 41/44/108
f 27/26/109 28/28/110 43/46/111 42/45/112
f 28/28/113 29/30/114 44/47/115 43/46/116
f 29/30/117 30/32/118 45/48/119 44/47/120
f 111/34/121 31/33/122 46/49/123 112/50/124
f 31/33/125 32/35/126 47/51/127 46/49/128
f 32/35/129 33/36/130 48/52/131 47/51/132
f 33/36/133 34/37/134 49/53/135 48/52/136
f 34/37/137 35/38/138 50/54/139 49/53/140
f 35/38/141 36/39/142 51/55/143 50/54/144
f 36/39/145 37/40/146 52/56/147 51/55/148
f 37/40/149 38/41/150 53/57/151 52/56/152
f 38/41/153 39/42/154 54/58/155 53/57/156
f 39/42/157 40/43/158 55/59/159 54/58/160
f 40/43/161 41/44/162 56/60/163 55/59/164
f 41/44/165 42/45/166 57/61/167 56/60/168
f 42/45/169 43/46/170 58/62/171 57/61/172
f 43/46/173 44/47/174 59/63/175 58/62/176
f 44/47/177 45/48/178 60/64/179 59/63/180
f 112/50/181 46/49/182 61/65/183 113/66/184
f 46/49/185 47/51/186 62/67/187 61/65/188
f 47/51/189 48/52/190 63/68/191 62/67/192
f 48/52/193 49/53/194 64/69/195 63/68/196
f 49/53/197 50/54/198 65/70/199 64/69/200
f 50/54/201 51/55/202 66/71/203 65/70/204
f 51/55/205 52/56/206 67/72/207 66/71/208
f 52/56/209 53/57/210 68/73/211 67/72/212
f 53/57/213 54/58/214 69/74/215 68/73/216
f 54/58/217 55/59/218 70/75/219 69/74/220
f 55/59/221 56/60/222 71/76/223 70/75/224
f 56/60/225 57/61/226 72/77/227 71/76/228
f 57/61/229 58/62/230 73/78/231 72/77/232
f 58/62/233 59/63/234 74/79/235 73/78/236
f 59/63/237 60/64/238 75/80/239 74/79/240
f 113/66/241 61/65/242 114/81/243 115/82/244
f 61/65/245 62/67/246 116/83/247 114/81/248
f 62/67/249 63/68/250 117/84/251 116/83/252
f 63/68/253 64/69/254 118/85/255 117/84/256
f 64/69/257 65/70/258 76/86/259 118/85/260
f 65/70/261 66/71/262 77/87/263 76/86/264
f 66/71/265 67/72/266 78/88/267 77/87/268
f 67/72/269 68/73/270 79/89/271 78/88/272
f 68/73/273 69/74/274 80/90/275 79/89/276
f 69/74/277 70/75/278 81/91/279 80/90/280
f 70/75/281 71/76/282 82/92/283 81/91/284
f 71/76/285 72/77/286 83/93/287 82/92/288
f 72/77/289 73/78/290 84/94/291 83/93/292
f 73/78/293 74/79/294 85/95/295 84/94/296
f 74/79/297 75/80/298 86/96/299 85/95/300
f 118/85/301 76/86/302 87/97/303 119/98/304
f 76/86/305 77/87/306 88/99/307 87/97/308
f 77/87/309 78/88/310 89/100/311 88/99/312
f 78/88/313 79/89/314 90/101/315 89/100/316
f 79/89/317 80/90/318 91/102/319 90/101/320
f 80/90/321 81/91/322 92/103/323 91/102/324
f 81/91/325 82/92/326 93/104/327 92/103/328
f 82/92/329 83/93/330 94/105/331 93/104/332
f 83/93/333 84/94/334 95/106/335 94/105/336
f 84/94/337 85/95/338 96/107/339 95/106/340
f 85/95/341 86/96/342 97/108/343 96/107/344
f 119/98/345 87/97/346 98/109/347 120/110/348
f 87/97/349 88/99/350 99/111/351 98/109/352
f 88/99/353 89/100/354 100/112/355 99/111/356
f 89/100/357 90/101/358 101/113/359 100/112/360
f 90/101/361 91/102/362 102/114/363 101/113/364
f 91/102/365 92/103/366 103/115/367 102/114/368
f 92/103/369 93/104/370 104/116/371 103/115/372
f 93/104/373 94/105/374 105/117/375 104/116/376
f 94/105/377 95/106/378 106/118/379 105/117/380
f 95/106/381 96/107/382 107/119/383 106/118/384
f 96/107/385 97/108/386 108/120/387 107/119/388
f 120/110/389 98/109/390 121/121/391 122/122/392
f 98/109/393 99/111/394 123/123/395 121/121/396
f 99/111/397 100/112/398 124/124/399 123/123/400
f 100/112/401 101/113/402 125/125/403 124/124/404
f 101/113/405 102/114/406 126/126/407 125/125/408
f 102/114/409 103/115/410 127/127/411 126/126/412
f 103/115/413 104/116/414 128/128/415 127/127/416
f 104/116/417 105/117/418 129/129/419 128/128/420
f 105/117/421 106/118/422 130/130/423 129/129/424
f 106/118/425 107/119/426 131/131/427 130/130/428
f 107/119/429 108/120/430 132/132/431 131/131/432
