# This file uses centimeters as units for non-parametric coordinates.

v 25.916516 0.849535 -0.024540
v 25.916516 0.027004 -0.024540
v 25.916516 1.672068 -0.024540
v 32.432616 0.849535 -0.022587
v 32.432616 0.027004 -0.022587
v 25.916516 2.494599 -0.024540
v 32.432616 1.672068 -0.022587
v 32.432244 0.027004 -0.559850
v 32.432244 0.849535 -0.559850
v 25.916516 3.317131 -0.024540
v 32.432616 2.494599 -0.022587
v 32.432244 1.672068 -0.559850
v 32.432244 0.027004 -2.432641
v 32.432244 0.849535 -2.432641
v 25.916516 4.139663 -0.024540
v 32.432616 3.317131 -0.022587
v 32.432244 2.494599 -0.559850
v 32.432244 1.672068 -2.432641
v 32.432244 0.027004 -4.305431
v 32.432244 0.849535 -4.305431
v 32.432616 4.139663 -0.022587
v 32.432244 3.317131 -0.559850
v 32.432244 2.494599 -2.432641
v 32.432244 1.672068 -4.305432
v 32.432873 0.027004 -4.875385
v 32.432873 0.849535 -4.875385
v 32.432244 4.139663 -0.559850
v 32.432244 3.317131 -2.432641
v 32.432244 2.494599 -4.305431
v 32.432873 1.672068 -4.875385
v 31.681317 0.027004 -4.875605
v 31.681317 0.849535 -4.875605
v 32.432244 4.139663 -2.432641
v 32.432244 3.317131 -4.305432
v 32.432873 2.494599 -4.875385
v 31.681313 1.672068 -4.875605
v 29.177805 0.027004 -4.875233
v 29.177805 0.849535 -4.875233
v 32.432244 4.139663 -4.305431
v 32.432873 3.317131 -4.875385
v 31.681317 2.494599 -4.875605
v 29.177805 1.672068 -4.875233
v 26.674291 0.027004 -4.874860
v 26.674291 0.849535 -4.874860
v 32.432873 4.139663 -4.875385
v 31.681313 3.317131 -4.875605
v 29.177805 2.494599 -4.875233
v 26.674290 1.672068 -4.874861
v 25.885149 0.027004 -4.876910
v 25.885149 0.849535 -4.876910
v 31.681317 4.139663 -4.875605
v 29.177805 3.317131 -4.875233
v 26.674291 2.494599 -4.874860
v 25.885149 1.672068 -4.876909
v 25.890581 0.849535 -3.509443
v 25.890581 0.027004 -3.509443
v 29.177805 4.139663 -4.875233
v 26.674290 3.317131 -4.874861
v 25.885149 2.494599 -4.876910
v 25.890581 1.672068 -3.509443
v 25.890579 0.224950 -1.469580
v 25.890579 0.027526 -1.469580
v 25.890579 0.027526 -0.824805
v 25.890579 0.027004 -0.823100
v 26.674291 4.139663 -4.874860
v 25.885149 3.317131 -4.876909
v 25.890581 2.494599 -3.509443
v 25.890581 1.047481 -1.469580
v 25.890581 0.849535 -1.469580
v 25.890579 0.027526 -0.823100
v 25.885149 4.139663 -4.876910
v 25.890581 3.317131 -3.509443
v 25.890584 1.870013 -1.469580
v 25.890584 1.672068 -1.469580
v 25.890581 0.027004 -0.027522
v 25.890579 0.027526 -0.630597
v 25.890581 0.672708 -0.630597
v 25.890581 4.139663 -3.509443
v 25.890581 2.494599 -0.823100
v 25.890583 2.090436 -0.823100
v 25.890583 2.090436 -1.469580
v 25.890581 0.849535 -0.630597
v 25.890581 0.849535 -0.027522
v 25.890584 3.317131 -0.823100
v 25.890583 2.090436 -0.630597
v 25.890584 1.495240 -0.630597
v 25.890581 0.849535 -0.027522
v 25.890581 0.027004 -0.027522
v 25.890581 4.139663 -0.823100
v 25.890584 1.672068 -0.630597
v 25.890579 1.672068 -0.027522
v 25.890581 2.494599 -0.027522
v 25.890579 3.317131 -0.027522
v 25.890581 4.139663 -0.027522
v 32.444063 0.027004 -0.541620
v 32.444063 0.849535 -0.541620
v 32.444063 1.672068 -0.541621
v 32.444063 2.494599 -0.541620
v 32.444063 3.317131 -0.541621
v 32.444063 4.139663 -0.541620
v 31.816505 4.139663 -0.015026
v 31.816601 3.317131 -0.014865
v 31.816693 2.494599 -0.014702
v 31.816789 1.672068 -0.014541
v 31.816885 0.849535 -0.014379
v 31.816979 0.027004 -0.014219
v 28.682897 4.139663 -0.024483
v 28.682897 3.317131 -0.024483
v 28.682897 2.494599 -0.024483
v 28.682897 1.672068 -0.024483
v 28.682897 0.849536 -0.024483
v 28.682897 0.027004 -0.024483
vt 1.134137 0.441877
vt 1.134137 0.411251
vt 1.134137 0.472502
vt 1.335385 0.441877
vt 1.335385 0.411251
vt 1.134137 0.503127
vt 1.335385 0.472502
vt 0.725596 0.412766
vt 0.766797 0.412766
vt 0.766797 0.443204
vt 0.725596 0.443204
vt 1.134137 0.533752
vt 1.335385 0.503127
vt 0.766797 0.473642
vt 0.725596 0.473642
vt 0.582702 0.412766
vt 0.582702 0.443204
vt 1.134137 0.564378
vt 1.335385 0.533752
vt 0.766797 0.504080
vt 0.725596 0.504080
vt 0.582702 0.473642
vt 0.439807 0.412766
vt 0.439807 0.443204
vt 1.335385 0.564378
vt 0.766797 0.534518
vt 0.725596 0.534518
vt 0.582702 0.504080
vt 0.439807 0.473642
vt 0.396345 0.412766
vt 0.396345 0.443204
vt 0.766797 0.564956
vt 0.725596 0.564956
vt 0.582702 0.534518
vt 0.439807 0.504080
vt 0.396345 0.473642
vt 0.952329 0.411440
vt 0.974559 0.411440
vt 0.974559 0.442065
vt 0.952329 0.442065
vt 0.582702 0.564956
vt 0.439807 0.534518
vt 0.396345 0.504080
vt 0.974559 0.472690
vt 0.952329 0.472690
vt 0.878340 0.411440
vt 0.878340 0.442065
vt 0.439807 0.564956
vt 0.396345 0.534518
vt 0.974559 0.503315
vt 0.952329 0.503315
vt 0.878340 0.472690
vt 0.804352 0.411440
vt 0.804352 0.442065
vt 0.396345 0.564956
vt 0.974559 0.533941
vt 0.952329 0.533941
vt 0.878340 0.503315
vt 0.804352 0.472690
vt 0.779689 0.411440
vt 0.779689 0.442065
vt 0.974559 0.564566
vt 0.952329 0.564566
vt 0.878340 0.533941
vt 0.804352 0.503315
vt 0.779689 0.472690
vt 0.500541 0.443204
vt 0.500541 0.412766
vt 0.395872 0.412766
vt 0.395872 0.443204
vt 0.878340 0.564566
vt 0.804352 0.533941
vt 0.779689 0.503315
vt 0.500541 0.473642
vt 0.395872 0.473642
vt 0.656183 0.420091
vt 0.656183 0.412785
vt 0.705380 0.412785
vt 0.705510 0.412766
vt 0.804352 0.564566
vt 0.779689 0.533941
vt 0.395872 0.504080
vt 0.500541 0.504080
vt 0.656183 0.450529
vt 0.656183 0.443204
vt 0.705510 0.412785
vt 0.779689 0.564566
vt 0.395872 0.534518
vt 0.500541 0.534518
vt 0.656183 0.480967
vt 0.656183 0.473642
vt 0.773833 0.412766
vt 0.720198 0.412785
vt 0.720198 0.436660
vt 0.395872 0.564956
vt 0.500541 0.564956
vt 0.705510 0.504080
vt 0.705510 0.534518
vt 0.705510 0.489124
vt 0.656183 0.489124
vt 0.720198 0.443204
vt 0.773833 0.443204
vt 0.705510 0.564956
vt 0.773833 0.473642
vt 0.720198 0.473642
vt 0.720198 0.489124
vt 0.773833 0.504080
vt 0.720198 0.467098
vt 0.773833 0.443204
vt 0.773833 0.412766
vt 0.773833 0.534518
vt 0.773833 0.564956
vt 0.366124 0.564566
vt 0.366124 0.533941
vt 0.390374 0.533941
vt 0.390372 0.564566
vt 0.366124 0.503315
vt 0.390375 0.503315
vt 0.366124 0.472690
vt 0.390377 0.472690
vt 0.366124 0.442065
vt 0.390379 0.442065
vt 0.366124 0.411440
vt 0.390381 0.411440
vt 1.140072 0.564378
vt 1.140072 0.533752
vt 1.140072 0.503127
vt 1.140072 0.472502
vt 1.140072 0.441877
vt 1.140072 0.411251
vn -0.000024 0.000000 -1.000000
vn 0.000300 0.000000 -1.000000
vn 0.000300 0.000000 -1.000000
vn -0.000024 0.000000 -1.000000
vn -0.000024 0.000000 -1.000000
vn 0.000300 0.000000 -1.000000
vn 0.000300 0.000000 -1.000000
vn -0.000024 0.000000 -1.000000
vn -1.000000 0.000000 0.000155
vn -0.137252 0.000000 -0.990536
vn -0.137252 0.000000 -0.990536
vn -1.000000 0.000000 0.000155
vn -0.000026 0.000000 -1.000000
vn 0.000300 0.000000 -1.000000
vn 0.000300 0.000000 -1.000000
vn -0.000024 0.000000 -1.000000
vn -1.000000 0.000000 0.000155
vn -0.137252 0.000000 -0.990536
vn -0.137252 0.000000 -0.990536
vn -1.000000 0.000000 0.000155
vn -1.000000 0.000000 0.000000
vn -1.000000 0.000000 0.000155
vn -1.000000 0.000000 0.000155
vn -1.000000 0.000000 0.000000
vn -0.000028 0.000000 -1.000000
vn 0.000300 0.000000 -1.000000
vn 0.000300 0.000000 -1.000000
vn -0.000026 0.000000 -1.000000
vn -1.000000 0.000000 0.000155
vn -0.137252 0.000000 -0.990536
vn -0.137252 0.000000 -0.990536
vn -1.000000 0.000000 0.000155
vn -1.000000 0.000000 0.000000
vn -1.000000 0.000000 0.000155
vn -1.000000 0.000000 0.000155
vn -1.000000 0.000000 0.000000
vn -1.000000 0.000000 -0.000257
vn -1.000000 0.000000 0.000000
vn -1.000000 0.000000 0.000000
vn -1.000000 0.000000 -0.000257
vn -0.000028 0.000000 -1.000000
vn 0.000300 0.000000 -1.000000
vn 0.000300 0.000000 -1.000000
vn -0.000028 0.000000 -1.000000
vn -1.000000 0.000000 0.000155
vn -0.137252 0.000000 -0.990536
vn -0.137252 0.000000 -0.990536
vn -1.000000 0.000000 0.000155
vn -1.000000 0.000000 0.000000
vn -1.000000 0.000000 0.000155
vn -1.000000 0.000000 0.000155
vn -1.000000 0.000000 0.000000
vn -1.000000 0.000000 -0.000257
vn -1.000000 0.000000 0.000000
vn -1.000000 0.000000 0.000000
vn -1.000000 0.000000 -0.000257
vn -0.604727 0.000000 0.796433
vn -1.000000 0.000000 -0.000257
vn -1.000000 0.000000 -0.000257
vn -0.604727 0.000000 0.796433
vn -1.000000 0.000000 0.000155
vn -0.137252 0.000000 -0.990536
vn -0.137252 0.000000 -0.990536
vn -1.000000 0.000000 0.000155
vn -1.000000 0.000000 0.000000
vn -1.000000 0.000000 0.000155
vn -1.000000 0.000000 0.000155
vn -1.000000 0.000000 0.000000
vn -1.000000 0.000000 -0.000257
vn -1.000000 0.000000 0.000000
vn -1.000000 0.000000 0.000000
vn -1.000000 0.000000 -0.000257
vn -0.604727 0.000000 0.796433
vn -1.000000 0.000000 -0.000257
vn -1.000000 0.000000 -0.000257
vn -0.604726 0.000000 0.796434
vn 0.000047 0.000000 1.000000
vn -0.604727 0.000000 0.796433
vn -0.604727 0.000000 0.796433
vn 0.000047 0.000000 1.000000
vn -1.000000 0.000000 0.000000
vn -1.000000 0.000000 0.000155
vn -1.000000 0.000000 0.000155
vn -1.000000 0.000000 0.000000
vn -1.000000 0.000000 -0.000257
vn -1.000000 0.000000 0.000000
vn -1.000000 0.000000 0.000000
vn -1.000000 0.000000 -0.000257
vn -0.604726 0.000000 0.796434
vn -1.000000 0.000000 -0.000257
vn -1.000000 0.000000 -0.000257
vn -0.604726 0.000000 0.796434
vn 0.000047 0.000000 1.000000
vn -0.604727 0.000000 0.796433
vn -0.604726 0.000000 0.796434
vn 0.000047 0.000000 1.000000
vn 0.000149 0.000000 1.000000
vn 0.000047 0.000000 1.000000
vn 0.000047 0.000000 1.000000
vn 0.000149 0.000000 1.000000
vn -1.000000 0.000000 -0.000257
vn -1.000000 0.000000 0.000000
vn -1.000000 0.000000 0.000000
vn -1.000000 0.000000 -0.000257
vn -0.604726 0.000000 0.796434
vn -1.000000 0.000000 -0.000257
vn -1.000000 0.000000 -0.000257
vn -0.604726 0.000000 0.796434
vn 0.000047 0.000000 1.000000
vn -0.604726 0.000000 0.796434
vn -0.604726 0.000000 0.796434
vn 0.000047 0.000000 1.000000
vn 0.000149 0.000000 1.000000
vn 0.000047 0.000000 1.000000
vn 0.000047 0.000000 1.000000
vn 0.000149 0.000000 1.000000
vn -0.000509 0.000000 1.000000
vn 0.000149 0.000000 1.000000
vn 0.000149 0.000000 1.000000
vn -0.000509 0.000000 1.000000
vn -0.604726 0.000000 0.796434
vn -1.000000 0.000000 -0.000257
vn -1.000000 0.000000 -0.000257
vn -0.604726 0.000000 0.796434
vn 0.000047 0.000000 1.000000
vn -0.604726 0.000000 0.796434
vn -0.604726 0.000000 0.796434
vn 0.000047 0.000000 1.000000
vn 0.000149 0.000000 1.000000
vn 0.000047 0.000000 1.000000
vn 0.000047 0.000000 1.000000
vn 0.000149 0.000000 1.000000
vn -0.000509 0.000000 1.000000
vn 0.000149 0.000000 1.000000
vn 0.000149 0.000000 1.000000
vn -0.000509 0.000000 1.000000
vn 0.867291 0.000000 0.497801
vn -0.000509 0.000000 1.000000
vn -0.000509 0.000000 1.000000
vn 0.867291 0.000000 0.497801
vn 0.000047 0.000000 1.000000
vn -0.604726 0.000000 0.796434
vn -0.604726 0.000000 0.796434
vn 0.000047 0.000000 1.000000
vn 0.000149 0.000000 1.000000
vn 0.000047 0.000000 1.000000
vn 0.000047 0.000000 1.000000
vn 0.000149 0.000000 1.000000
vn -0.000509 0.000000 1.000000
vn 0.000149 0.000000 1.000000
vn 0.000149 0.000000 1.000000
vn -0.000509 0.000000 1.000000
vn 0.867291 0.000000 0.497801
vn -0.000509 0.000000 1.000000
vn -0.000509 0.000000 1.000000
vn 0.867292 0.000000 0.497800
vn 0.999998 0.000000 -0.002100
vn 0.999998 0.000000 -0.002062
vn 0.867291 0.000000 0.497801
vn 0.867291 0.000000 0.497801
vn 0.000149 0.000000 1.000000
vn 0.000047 0.000000 1.000000
vn 0.000047 0.000000 1.000000
vn 0.000149 0.000000 1.000000
vn -0.000509 0.000000 1.000000
vn 0.000149 0.000000 1.000000
vn 0.000149 0.000000 1.000000
vn -0.000509 0.000000 1.000000
vn 0.867292 0.000000 0.497800
vn -0.000509 0.000000 1.000000
vn -0.000509 0.000000 1.000000
vn 0.867292 0.000000 0.497800
vn 0.999998 0.000000 -0.002100
vn 0.999998 0.000000 -0.002100
vn 0.867291 0.000000 0.497801
vn 0.867292 0.000000 0.497800
vn 0.999998 0.000000 -0.002062
vn 0.999998 0.000000 -0.002100
vn 1.000000 -0.000002 0.000001
vn 1.000000 0.000000 0.000001
vn 1.000000 0.000000 0.000001
vn 1.000000 -0.000005 -0.000001
vn -0.000509 0.000000 1.000000
vn 0.000149 0.000000 1.000000
vn 0.000149 0.000000 1.000000
vn -0.000509 0.000000 1.000000
vn 0.867292 0.000000 0.497800
vn -0.000509 0.000000 1.000000
vn -0.000509 0.000000 1.000000
vn 0.867292 0.000000 0.497800
vn 0.867292 0.000000 0.497800
vn 0.867292 0.000000 0.497800
vn 0.999999 -0.000001 -0.001633
vn 0.999998 0.000000 -0.002100
vn 1.000000 -0.000002 -0.000001
vn 1.000000 -0.000002 0.000000
vn 0.999998 0.000000 -0.002100
vn 0.999998 0.000000 -0.002100
vn 1.000000 -0.000002 0.000000
vn 1.000000 -0.000002 0.000001
vn 0.999998 0.000000 -0.002100
vn 1.000000 0.000000 0.000001
vn 1.000000 -0.000010 -0.000003
vn 1.000000 -0.000005 -0.000001
vn 0.867292 0.000000 0.497800
vn -0.000509 0.000000 1.000000
vn -0.000509 0.000000 1.000000
vn 0.867292 0.000000 0.497800
vn 0.867292 0.000000 0.497800
vn 0.867292 0.000000 0.497800
vn 0.999999 0.000000 -0.001340
vn 0.999999 -0.000001 -0.001633
vn 1.000000 0.000003 -0.000001
vn 1.000000 -0.000002 -0.000002
vn 0.999998 0.000000 -0.002100
vn 0.999999 -0.000001 -0.001633
vn 1.000000 -0.000002 -0.000002
vn 1.000000 -0.000002 -0.000001
vn 0.999998 0.000000 -0.002100
vn 1.000000 0.000000 -0.000001
vn 1.000000 -0.000005 -0.000001
vn 1.000000 -0.000010 -0.000003
vn 1.000000 -0.000010 -0.000003
vn 1.000000 0.000004 -0.000001
vn 0.867292 0.000000 0.497800
vn 0.867292 0.000000 0.497800
vn 0.999999 0.000001 -0.001340
vn 0.999999 0.000000 -0.001340
vn 1.000000 0.000001 0.000001
vn 0.999999 -0.000001 -0.001633
vn 0.999999 0.000000 -0.001340
vn 1.000000 0.000000 0.000000
vn 1.000000 0.000001 0.000001
vn 1.000000 0.000007 0.000002
vn 1.000000 0.000008 0.000000
vn 1.000000 0.000003 -0.000001
vn 0.999999 -0.000001 -0.001633
vn 1.000000 0.000004 -0.000001
vn 1.000000 0.000002 0.000000
vn 1.000000 -0.000001 0.000005
vn 1.000000 0.000000 -0.000001
vn 1.000000 0.000000 0.000000
vn 0.999999 0.000000 -0.001340
vn 0.999999 0.000001 -0.001340
vn 1.000000 0.000003 0.000000
vn 1.000000 0.000002 0.000006
vn 1.000000 0.000002 0.000006
vn 1.000000 0.000006 0.000004
vn 1.000000 0.000007 0.000002
vn 1.000000 0.000001 0.000001
vn 1.000000 0.000000 0.000004
vn 1.000000 0.000002 0.000000
vn 1.000000 -0.000005 0.000007
vn 1.000000 -0.000001 0.000005
vn 1.000000 0.000000 -0.000001
vn 1.000000 -0.000001 0.000005
vn 1.000000 -0.000005 0.000009
vn 0.000000 0.000000 0.000000
vn 1.000000 0.000001 0.000001
vn 1.000000 0.000000 0.000000
vn 1.000000 0.000000 0.000004
vn 1.000000 0.000000 0.000004
vn 1.000000 -0.000001 0.000005
vn 1.000000 -0.000005 0.000007
vn 1.000000 0.000002 0.000006
vn 1.000000 0.000002 0.000006
vn 1.000000 -0.000005 0.000009
vn 1.000000 0.000000 0.000000
vn 1.000000 0.000003 0.000000
vn 1.000000 0.000006 0.000004
vn 1.000000 0.000000 0.000004
vn -0.643103 -0.000054 -0.765779
vn -0.643125 -0.000054 -0.765761
vn -0.642882 -0.000116 -0.765966
vn -0.642882 -0.000116 -0.765965
vn -0.643125 -0.000054 -0.765761
vn -0.643167 -0.000054 -0.765726
vn -0.643054 -0.000113 -0.765821
vn -0.643054 -0.000113 -0.765821
vn -0.643167 -0.000054 -0.765726
vn -0.643209 -0.000054 -0.765691
vn -0.643227 -0.000110 -0.765676
vn -0.643227 -0.000110 -0.765676
vn -0.643209 -0.000054 -0.765691
vn -0.643251 -0.000054 -0.765655
vn -0.643400 -0.000116 -0.765530
vn -0.643400 -0.000116 -0.765530
vn -0.643251 -0.000054 -0.765655
vn -0.643272 -0.000054 -0.765638
vn -0.643572 -0.000113 -0.765386
vn -0.643572 -0.000113 -0.765386
vn -0.137252 0.000000 -0.990536
vn -0.137252 0.000000 -0.990536
vn -0.137252 0.000000 -0.990536
vn -0.137252 0.000000 -0.990536
vn -0.137252 0.000000 -0.990536
vn -0.137252 0.000000 -0.990536
vn -0.137252 0.000000 -0.990536
vn -0.137252 0.000000 -0.990536
vn -0.137252 0.000000 -0.990536
vn -0.137252 0.000000 -0.990536
f 1/1/1 111/129/2 112/130/3 2/2/4
f 3/3/5 110/128/6 111/129/7 1/1/8
f 8/8/9 5/9/10 4/10/11 9/11/12
f 6/6/13 109/127/14 110/128/15 3/3/16
f 9/11/17 4/10/18 7/14/19 12/15/20
f 13/16/21 8/8/22 9/11/23 14/17/24
f 10/12/25 108/126/26 109/127/27 6/6/28
f 12/15/29 7/14/30 11/20/31 17/21/32
f 14/17/33 9/11/34 12/15/35 18/22/36
f 19/23/37 13/16/38 14/17/39 20/24/40
f 15/18/41 107/125/42 108/126/43 10/12/44
f 17/21/45 11/20/46 16/26/47 22/27/48
f 18/22/49 12/15/50 17/21/51 23/28/52
f 20/24/53 14/17/54 18/22/55 24/29/56
f 25/30/57 19/23/58 20/24/59 26/31/60
f 22/27/61 16/26/62 21/32/63 27/33/64
f 23/28/65 17/21/66 22/27/67 28/34/68
f 24/29/69 18/22/70 23/28/71 29/35/72
f 26/31/73 20/24/74 24/29/75 30/36/76
f 31/37/77 25/38/78 26/39/79 32/40/80
f 28/34/81 22/27/82 27/33/83 33/41/84
f 29/35/85 23/28/86 28/34/87 34/42/88
f 30/36/89 24/29/90 29/35/91 35/43/92
f 32/40/93 26/39/94 30/44/95 36/45/96
f 37/46/97 31/37/98 32/40/99 38/47/100
f 34/42/101 28/34/102 33/41/103 39/48/104
f 35/43/105 29/35/106 34/42/107 40/49/108
f 36/45/109 30/44/110 35/50/111 41/51/112
f 38/47/113 32/40/114 36/45/115 42/52/116
f 43/53/117 37/46/118 38/47/119 44/54/120
f 40/49/121 34/42/122 39/48/123 45/55/124
f 41/51/125 35/50/126 40/56/127 46/57/128
f 42/52/129 36/45/130 41/51/131 47/58/132
f 44/54/133 38/47/134 42/52/135 48/59/136
f 49/60/137 43/53/138 44/54/139 50/61/140
f 46/57/141 40/56/142 45/62/143 51/63/144
f 47/58/145 41/51/146 46/57/147 52/64/148
f 48/59/149 42/52/150 47/58/151 53/65/152
f 50/61/153 44/54/154 48/59/155 54/66/156
f 55/67/157 56/68/158 49/69/159 50/70/160
f 52/64/161 46/57/162 51/63/163 57/71/164
f 53/65/165 47/58/166 52/64/167 58/72/168
f 54/66/169 48/59/170 53/65/171 59/73/172
f 60/74/173 55/67/174 50/70/175 54/75/176
f 56/68/177 55/67/178 61/76/179 62/77/180 63/78/181 64/79/182
f 58/72/183 52/64/184 57/71/185 65/80/186
f 59/73/187 53/65/188 58/72/189 66/81/190
f 54/75/191 59/82/192 67/83/193 60/74/194
f 68/84/195 69/85/196 55/67/197 60/74/198
f 69/85/199 61/76/200 55/67/201
f 63/78/202 70/86/203 64/79/204
f 66/81/205 58/72/206 65/80/207 71/87/208
f 59/82/209 66/88/210 72/89/211 67/83/212
f 73/90/213 74/91/214 60/74/215 67/83/216
f 74/91/217 68/84/218 60/74/219
f 75/92/220 64/79/221 70/86/222 76/93/223 77/94/224
f 66/88/225 71/95/226 78/96/227 72/89/228
f 79/97/229 67/83/230 72/89/231 84/98/232
f 79/97/233 80/99/234 81/100/235 73/90/236 67/83/237
f 77/94/238 82/101/239 83/102/240 75/92/241
f 84/98/242 72/89/243 78/96/244 89/103/245
f 91/104/246 90/105/247 85/106/248 80/99/249 79/97/250 92/107/251
f 82/101/252 86/108/253 83/102/254
f 75/92/255 83/102/256 87/109/257 88/110/258
f 79/97/259 84/98/260 93/111/261 92/107/262
f 83/102/263 86/108/264 90/105/265 91/104/266 87/109/267
f 84/98/268 89/103/269 94/112/270 93/111/271
f 100/113/272 99/114/273 102/115/274 101/116/275
f 99/114/276 98/117/277 103/118/278 102/115/279
f 98/117/280 97/119/281 104/120/282 103/118/283
f 97/119/284 96/121/285 105/122/286 104/120/287
f 96/121/288 95/123/289 106/124/290 105/122/291
f 107/125/42 21/25/292 16/19/293 108/126/43
f 109/127/27 108/126/26 16/19/294 11/13/295
f 110/128/15 109/127/14 11/13/296 7/7/297
f 111/129/7 110/128/6 7/7/298 4/4/299
f 112/130/3 111/129/2 4/4/300 5/5/301
