# This file uses centimeters as units for non-parametric coordinates.

v 9.256182 0.000000 -1.806270
v 13.256182 0.000000 -1.806270
v 9.256182 0.400000 -1.806270
v 13.256182 0.400000 -1.806270
v 9.256182 0.400000 -4.806270
v 13.256182 0.400000 -4.806270
v 9.256182 0.000000 -4.806270
v 13.256182 0.000000 -4.806270
vt 0.000000 0.979263
vt 1.000000 0.979263
vt 1.000000 0.727562
vt 0.000000 0.727562
vt 0.000000 0.003426
vt 1.000000 0.003426
vt 1.000000 0.653304
vt 0.000000 0.653304
vt 0.140299 0.992030
vt 0.139693 0.925149
vt 0.843581 0.923191
vt 0.844186 0.990072
vt 0.139670 0.922518
vt 0.139064 0.855637
vt 0.842951 0.853680
vt 0.843557 0.920561
vt 0.139040 0.853076
vt 0.138435 0.786196
vt 0.842322 0.784238
vt 0.842928 0.851119
vt 0.138411 0.783634
vt 0.137806 0.716754
vt 0.841693 0.714796
vt 0.842299 0.781677
vn 0.000000 0.000000 1.000000
vn 0.000000 0.000000 1.000000
vn 0.000000 0.000000 1.000000
vn 0.000000 0.000000 1.000000
vn 0.000000 1.000000 0.000000
vn 0.000000 1.000000 0.000000
vn 0.000000 1.000000 0.000000
vn 0.000000 1.000000 0.000000
vn 0.000000 0.000000 -1.000000
vn 0.000000 0.000000 -1.000000
vn 0.000000 0.000000 -1.000000
vn 0.000000 0.000000 -1.000000
vn 0.000000 -1.000000 0.000000
vn 0.000000 -1.000000 0.000000
vn 0.000000 -1.000000 0.000000
vn 0.000000 -1.000000 0.000000
vn 1.000000 0.000000 0.000000
vn 1.000000 0.000000 0.000000
vn 1.000000 0.000000 0.000000
vn 1.000000 0.000000 0.000000
vn -1.000000 0.000000 0.000000
vn -1.000000 0.000000 0.000000
vn -1.000000 0.000000 0.000000
vn -1.000000 0.000000 0.000000
f 1/9/1 2/10/2 4/11/3 3/12/4
f 3/5/5 4/6/6 6/7/7 5/8/8
f 5/13/9 6/14/10 8/15/11 7/16/12
f 7/1/13 8/2/14 2/3/15 1/4/16
f 2/17/17 8/18/18 6/19/19 4/20/20
f 7/21/21 1/22/22 3/23/23 5/24/24
