# This file uses centimeters as units for non-parametric coordinates.

v 23.628557 4.150000 -0.067986
v 24.303825 4.150000 -0.067986
v 24.979097 4.150000 -0.067986
v 25.654366 4.150000 -0.067986
v 23.628557 4.150000 -0.743258
v 24.303825 4.150000 -0.743258
v 24.979097 4.150000 -0.743258
v 25.654366 4.150000 -0.743258
v 23.628557 4.150000 -1.418526
v 24.303825 4.150000 -1.418526
v 24.979097 4.150000 -1.418526
v 25.654366 4.150000 -1.418526
v 23.628557 4.150000 -2.093796
v 24.303825 4.150000 -2.093796
v 24.979097 4.150000 -2.093796
v 25.654366 4.150000 -2.093796
v 23.628557 4.150000 0.011605
v 24.303825 4.150000 0.011605
v 24.979097 4.150000 0.011605
v 25.654366 4.150000 0.011605
v 22.953289 4.150000 -0.067986
v 22.953289 4.150000 -0.743258
v 22.953289 4.150000 -1.418526
v 22.953289 4.150000 -2.093796
v 22.953289 4.150000 -2.769064
v 23.628557 4.150000 -2.769064
v 24.303825 4.150000 -2.769064
v 24.979097 4.150000 -2.769064
v 25.654366 4.150000 -2.769064
v 22.953289 4.150000 0.011605
vt 0.501260 0.779909
vt 0.501260 0.804670
vt 0.521240 0.804670
vt 0.521240 0.779909
vt 0.541220 0.804670
vt 0.541220 0.779909
vt 0.561200 0.804670
vt 0.561200 0.779909
vt 0.581180 0.804670
vt 0.581180 0.779909
vt 0.501260 0.829430
vt 0.521240 0.829430
vt 0.541220 0.829430
vt 0.561200 0.829430
vt 0.581180 0.829430
vt 0.501260 0.854190
vt 0.521240 0.854190
vt 0.541220 0.854190
vt 0.561200 0.854190
vt 0.581180 0.854190
vt 0.366072 0.917084
vt 0.366072 0.941845
vt 0.386052 0.941845
vt 0.386052 0.917084
vt 0.521240 0.878950
vt 0.541220 0.878950
vt 0.561200 0.878950
vt 0.581180 0.878950
vt 0.362628 0.938926
vt 0.342647 0.938926
vt 0.342647 0.941844
vt 0.362628 0.941844
vt 0.541220 0.776991
vt 0.521240 0.776991
vt 0.561200 0.776991
vt 0.581180 0.776991
vn 0.000000 -1.000000 0.000000
vn 0.000000 -1.000000 0.000000
vn 0.000000 -1.000000 0.000000
vn 0.000000 -1.000000 0.000000
vn 0.000000 -1.000000 0.000000
vn 0.000000 -1.000000 0.000000
vn 0.000000 -1.000000 0.000000
vn 0.000000 -1.000000 0.000000
vn 0.000000 -1.000000 0.000000
vn 0.000000 -1.000000 0.000000
vn 0.000000 -1.000000 0.000000
vn 0.000000 -1.000000 0.000000
vn 0.000000 -1.000000 0.000000
vn 0.000000 -1.000000 0.000000
vn 0.000000 -1.000000 0.000000
vn 0.000000 -1.000000 0.000000
vn 0.000000 -1.000000 0.000000
vn 0.000000 -1.000000 0.000000
vn 0.000000 -1.000000 0.000000
vn 0.000000 -1.000000 0.000000
vn 0.000000 -1.000000 0.000000
vn 0.000000 -1.000000 0.000000
vn 0.000000 -1.000000 0.000000
vn 0.000000 -1.000000 0.000000
vn 0.000000 -1.000000 0.000000
vn 0.000000 -1.000000 0.000000
vn 0.000000 -1.000000 0.000000
vn 0.000000 -1.000000 0.000000
vn 0.000000 -1.000000 0.000000
vn 0.000000 -1.000000 0.000000
f 21/1/1 22/2/2 5/3/3 1/4/4
f 1/4/4 5/3/3 6/5/5 2/6/6
f 2/6/6 6/5/5 7/7/7 3/8/8
f 3/8/8 7/7/7 8/9/9 4/10/10
f 22/2/2 23/11/11 9/12/12 5/3/3
f 5/3/3 9/12/12 10/13/13 6/5/5
f 6/5/5 10/13/13 11/14/14 7/7/7
f 7/7/7 11/14/14 12/15/15 8/9/9
f 23/11/11 24/16/16 13/17/17 9/12/12
f 9/12/12 13/17/17 14/18/18 10/13/13
f 10/13/13 14/18/18 15/19/19 11/14/14
f 11/14/14 15/19/19 16/20/20 12/15/15
f 24/21/16 25/22/21 26/23/22 13/24/17
f 13/17/17 26/25/22 27/26/23 14/18/18
f 14/18/18 27/26/23 28/27/24 15/19/19
f 15/19/19 28/27/24 29/28/25 16/20/20
f 17/29/26 30/30/27 21/31/1 1/32/4
f 18/33/28 17/34/26 1/4/4 2/6/6
f 19/35/29 18/33/28 2/6/6 3/8/8
f 20/36/30 19/35/29 3/8/8 4/10/10
