# This file uses centimeters as units for non-parametric coordinates.

v 20.220320 4.966662 -4.759780
v 20.216288 4.966662 -4.888028
v 20.216288 4.966662 -4.631532
v 20.204212 4.966662 -5.015770
v 20.204214 4.966662 -4.503789
v 20.184139 4.966662 -5.142502
v 20.184141 4.966662 -4.377058
v 20.156149 4.966662 -5.267723
v 20.156151 4.966662 -4.251836
v 20.126499 4.966662 -5.369780
v 20.150003 4.966662 -4.230676
v 20.120352 4.966662 -5.390940
v 20.120352 4.966662 -4.128620
v 20.076889 4.966662 -5.511666
v 20.076889 4.966662 -4.007894
v 20.034681 4.966662 -5.609201
v 20.068138 4.966662 -3.987671
v 20.025930 4.966662 -5.629424
v 20.025930 4.966662 -3.890135
v 19.977682 4.966662 -5.724117
v 19.967678 4.966662 -3.775809
v 19.967678 4.966662 -5.743751
v 19.902363 4.966662 -3.665365
v 19.902361 4.966662 -5.854194
v 19.830240 4.966662 -3.559242
v 19.830240 4.966662 -5.960318
v 19.816734 4.966662 -3.541831
v 19.751598 4.966662 -6.061704
v 19.751598 4.966662 -3.457855
v 19.666742 4.966662 -6.157951
v 19.666744 4.966662 -3.361608
v 19.576014 4.966662 -6.248682
v 19.576015 4.966662 -3.270878
v 19.479765 4.966662 -6.333536
v 19.479767 4.966662 -3.186024
v 19.378378 4.966662 -6.412179
v 19.378380 4.966662 -3.107381
v 19.272255 4.966662 -6.484300
v 19.272257 4.966662 -3.035259
v 19.161812 4.966662 -6.549616
v 19.161812 4.966662 -2.969943
v 19.047485 4.966662 -6.607868
v 19.047485 4.966662 -2.911690
v 18.929728 4.966662 -6.658827
v 18.929728 4.966662 -2.860732
v 18.809002 4.966662 -6.702291
v 18.839233 4.966662 -6.691407
v 18.809002 4.966662 -2.817268
v 18.839233 4.966662 -2.828152
v 18.685785 4.966662 -6.738089
v 18.685785 4.966662 -2.781470
v 18.560562 4.966662 -6.766079
v 18.560562 4.966662 -2.753480
v 18.433832 4.966662 -6.786151
v 18.433832 4.966662 -2.733407
v 18.306089 4.966662 -6.798227
v 18.306089 4.966662 -2.721333
v 18.177841 4.966662 -6.802257
v 18.177841 4.966662 -2.717302
v 18.049593 4.966662 -6.798227
v 18.049593 4.966662 -2.721333
v 17.921850 4.966662 -6.786151
v 17.921850 4.966662 -2.733408
v 17.795120 4.966662 -6.766079
v 17.795120 4.966662 -2.753480
v 17.669899 4.966662 -6.738089
v 17.669897 4.966662 -2.781471
v 17.546680 4.966662 -6.702291
v 17.546680 4.966662 -2.817268
v 17.425955 4.966662 -6.658827
v 17.425955 4.966662 -2.860732
v 17.308197 4.966662 -6.607868
v 17.308197 4.966662 -2.911691
v 17.193871 4.966662 -6.549616
v 17.193871 4.966662 -2.969943
v 17.083427 4.966662 -6.484301
v 17.083426 4.966662 -3.035259
v 16.977304 4.966662 -6.412179
v 17.065201 4.966662 -3.047644
v 16.893330 4.966662 -6.347041
v 16.977303 4.966662 -3.107381
v 16.875917 4.966662 -6.333536
v 16.875917 4.966662 -3.186024
v 16.796198 4.966662 -6.263253
v 16.859390 4.966662 -3.200596
v 16.779669 4.966662 -6.248682
v 16.779669 4.966662 -3.270878
v 16.688940 4.966662 -6.157951
v 16.688940 4.966662 -3.361607
v 16.618656 4.966662 -6.078233
v 16.604084 4.966662 -6.061704
v 16.604084 4.966662 -3.457855
v 16.525442 4.966662 -5.960318
v 16.525442 4.966662 -3.559242
v 16.453321 4.966662 -5.854194
v 16.453321 4.966662 -3.665365
v 16.388004 4.966662 -5.743751
v 16.442104 4.966662 -3.684332
v 16.339756 4.966662 -5.649058
v 16.329752 4.966662 -5.629425
v 16.388004 4.966662 -3.775809
v 16.329752 4.966662 -3.890135
v 16.278793 4.966662 -5.511666
v 16.278793 4.966662 -4.007894
v 16.235331 4.966662 -5.390940
v 16.271330 4.966662 -4.028626
v 16.199532 4.966662 -5.267723
v 16.235331 4.966662 -4.128620
v 16.176350 4.966662 -5.164006
v 16.229183 4.966662 -4.149780
v 16.171543 4.966662 -5.142502
v 16.199532 4.966662 -4.251836
v 16.151470 4.966662 -5.015770
v 16.194725 4.966662 -4.273340
v 16.139395 4.966662 -4.888028
v 16.171543 4.966662 -4.377058
v 16.151470 4.966662 -4.503789
v 16.135365 4.966662 -4.759780
v 16.149397 4.966662 -4.525727
v 16.139395 4.966662 -4.631532
v -0.807907 -0.062970 0.721506
v -0.807907 4.966662 0.721506
v 12.938087 4.966662 0.721506
v 12.938087 -0.062970 0.721506
v -0.807907 -0.062970 -2.645975
v -0.807907 4.966662 -2.645975
v 12.938087 -0.062970 -2.645975
v 12.938087 4.966662 3.081922
v 12.938087 -0.062970 3.081922
v 12.938087 4.966662 -2.645975
v -0.807907 -0.062970 -6.962380
v -0.807907 4.966662 -6.962380
v 12.938087 -0.062970 -6.962380
v 19.063574 -0.062970 0.721506
v 19.063574 -0.062970 -2.645975
v 19.063574 4.966662 0.721506
v 19.063574 4.966662 3.081922
v 19.063574 -0.062970 3.081922
v 19.063574 4.966662 -2.645975
v 12.938087 4.966662 -6.962380
v -0.807907 -0.062970 -10.323217
v -0.807907 4.966662 -10.323217
v 12.938087 -0.062970 -10.323217
v 19.063574 -0.062970 -6.962380
v 20.244831 -0.062970 0.721506
v 20.244831 -0.062970 -2.645975
v 20.244831 4.966662 -2.645975
v 20.244831 4.966662 0.721506
v 18.839233 4.966662 -6.962380
v 12.938087 4.966662 -10.323217
v 18.839233 -0.062970 -10.323217
v 20.244831 -0.062970 -6.962380
v 33.223938 -0.062970 0.721506
v 33.223938 -0.062970 -2.645975
v 33.223938 4.966662 -2.645975
v 33.223938 4.966662 0.721506
v 20.244831 4.966662 -6.962380
v 18.839233 4.966662 -10.323217
v 20.244831 -0.062970 -10.323217
v 33.223938 -0.062970 -6.962380
v 33.223938 4.966662 -6.962380
v 20.244831 4.966662 -10.323217
v 33.223938 -0.062970 -10.323217
v 33.223938 4.966662 -10.323217
v 15.169521 -0.049479 3.081922
v 16.668180 -0.049479 3.081922
vt 0.554437 0.481799
vt 0.613047 0.450423
vt 0.613047 0.507818
vt 0.554437 0.539195
vt 0.385267 0.300671
vt 0.443876 0.269295
vt 0.479312 0.522017
vt 0.479312 0.579412
vt 0.310142 0.340889
vt 0.309881 0.219957
vt 0.368491 0.188580
vt 0.420818 0.553331
vt 0.420818 0.610727
vt 0.251648 0.372203
vt 0.234756 0.260174
vt 0.295344 0.204391
vt 0.353953 0.173015
vt 0.409573 0.166587
vt 0.484958 0.247302
vt 0.251648 0.429598
vt 0.179023 0.294445
vt 0.220218 0.244609
vt 0.135611 0.033368
vt 0.194221 0.001992
vt 0.179023 0.351840
vt 0.161724 0.275923
vt 0.060486 0.073586
vt 0.161724 0.333319
vt 0.001992 0.104900
vt 0.001992 0.162296
vt 0.956926 0.082447
vt 0.956926 0.025051
vt 0.998008 0.003058
vt 0.998008 0.060454
vt 0.112976 0.431413
vt 0.308316 0.588275
vt 0.274478 0.642620
vt 0.079137 0.485758
vt 0.395364 0.658175
vt 0.361526 0.712521
vt 0.231104 0.712279
vt 0.035764 0.555417
vt 0.332035 0.550182
vt 0.419083 0.620082
vt 0.412151 0.671655
vt 0.378312 0.726000
vt 0.356507 0.712901
vt 0.356187 0.712380
vt 0.354796 0.710396
vt 0.353297 0.708515
vt 0.351698 0.706745
vt 0.350004 0.705093
vt 0.348222 0.703564
vt 0.346359 0.702166
vt 0.344423 0.700903
vt 0.342420 0.699781
vt 0.340359 0.698803
vt 0.338248 0.697975
vt 0.336096 0.697299
vt 0.333911 0.696777
vt 0.331701 0.696413
vt 0.329475 0.696207
vt 0.329091 0.696198
vt 0.327242 0.696159
vt 0.325011 0.696272
vt 0.324630 0.696318
vt 0.322790 0.696543
vt 0.320589 0.696972
vt 0.318416 0.697556
vt 0.316280 0.698295
vt 0.314189 0.699185
vt 0.313839 0.699363
vt 0.312151 0.700222
vt 0.310174 0.701402
vt 0.308267 0.702721
vt 0.307952 0.702971
vt 0.306436 0.704173
vt 0.306136 0.704445
vt 0.304689 0.705753
vt 0.304405 0.706046
vt 0.303033 0.707455
vt 0.301474 0.709271
vt 0.301224 0.709601
vt 0.300019 0.711195
vt 0.298673 0.713219
vt 0.297442 0.715334
vt 0.296330 0.717534
vt 0.295341 0.719808
vt 0.295194 0.720210
vt 0.294481 0.722148
vt 0.293751 0.724545
vt 0.293156 0.726989
vt 0.292697 0.729471
vt 0.292642 0.729902
vt 0.292376 0.731981
vt 0.292194 0.734509
vt 0.292153 0.737044
vt 0.292251 0.739578
vt 0.292292 0.740011
vt 0.292490 0.742100
vt 0.292868 0.744599
vt 0.292956 0.745023
vt 0.293383 0.747067
vt 0.293495 0.747483
vt 0.294033 0.749493
vt 0.294817 0.751868
vt 0.295730 0.754182
vt 0.296769 0.756427
vt 0.297931 0.758593
vt 0.299210 0.760672
vt 0.300601 0.762656
vt 0.302099 0.764537
vt 0.303698 0.766307
vt 0.305392 0.767960
vt 0.307174 0.769488
vt 0.309037 0.770886
vt 0.310974 0.772149
vt 0.312977 0.773272
vt 0.315037 0.774249
vt 0.317148 0.775077
vt 0.317687 0.775247
vt 0.314964 0.779620
vt 0.197333 0.766517
vt 0.001992 0.609655
vt 0.596594 0.819766
vt 0.562755 0.874111
vt 0.334939 0.795660
vt 0.319300 0.775753
vt 0.321486 0.776275
vt 0.323696 0.776639
vt 0.325922 0.776846
vt 0.328155 0.776893
vt 0.330386 0.776781
vt 0.332606 0.776509
vt 0.334807 0.776081
vt 0.336980 0.775496
vt 0.339116 0.774757
vt 0.341208 0.773867
vt 0.343246 0.772830
vt 0.343585 0.772628
vt 0.345222 0.771650
vt 0.345550 0.771423
vt 0.347130 0.770331
vt 0.348960 0.768879
vt 0.349260 0.768607
vt 0.350707 0.767299
vt 0.352363 0.765597
vt 0.353922 0.763781
vt 0.355377 0.761857
vt 0.356723 0.759834
vt 0.357955 0.757718
vt 0.359067 0.755519
vt 0.360055 0.753244
vt 0.360916 0.750904
vt 0.361041 0.750493
vt 0.361645 0.748507
vt 0.362240 0.746063
vt 0.362319 0.745637
vt 0.362700 0.743581
vt 0.363021 0.741071
vt 0.363202 0.738543
vt 0.363244 0.736008
vt 0.363227 0.735573
vt 0.363145 0.733474
vt 0.362906 0.730953
vt 0.362529 0.728453
vt 0.362014 0.725985
vt 0.361363 0.723559
vt 0.360580 0.721184
vt 0.359666 0.718870
vt 0.358627 0.716625
vt 0.357466 0.714459
vt 0.281193 0.833858
vt 0.519382 0.943770
vt 0.301167 0.849897
vt 0.485610 0.998008
vt 0.559248 0.107475
vt 0.559248 0.206887
vt 0.511810 0.206887
vt 0.511810 0.107475
vt 0.845156 0.210998
vt 0.845156 0.148245
vt 0.952368 0.148245
vt 0.952368 0.210998
vt 0.845156 0.067810
vt 0.952368 0.067810
vt 0.845156 0.005181
vt 0.952368 0.005181
vt 0.733385 0.276663
vt 0.733385 0.004971
vt 0.840598 0.004971
vt 0.840598 0.276663
vt 0.726869 0.286212
vt 0.619657 0.286212
vt 0.619657 0.262865
vt 0.726869 0.262865
vt 0.619657 0.006330
vt 0.726869 0.006330
vt 0.505928 0.330443
vt 0.506215 0.286339
vt 0.505928 0.209372
vt 0.506215 0.256717
vn 0.000000 0.000000 1.000000
vn 0.000000 0.000000 1.000000
vn 0.000000 0.000000 1.000000
vn 0.000000 0.000000 1.000000
vn -1.000000 0.000000 0.000000
vn -1.000000 0.000000 0.000000
vn -1.000000 0.000000 0.000000
vn -1.000000 0.000000 0.000000
vn 0.000000 -1.000000 0.000000
vn 0.000000 -1.000000 0.000000
vn 0.000000 -1.000000 0.000000
vn 0.000000 -1.000000 0.000000
vn -1.000000 0.000000 0.000000
vn -1.000000 0.000000 0.000000
vn -1.000000 0.000000 0.000000
vn -1.000000 0.000000 0.000000
vn 0.000000 1.000000 0.000000
vn 0.000000 1.000000 0.000000
vn 0.000000 1.000000 0.000000
vn 0.000000 1.000000 0.000000
vn -1.000000 0.000000 0.000000
vn -1.000000 0.000000 0.000000
vn 0.000000 -1.000000 0.000000
vn 0.000000 -1.000000 -0.000000
vn 0.000000 -1.000000 0.000000
vn 0.000000 -1.000000 0.000000
vn 0.000000 1.000000 0.000000
vn 0.000000 1.000000 0.000000
vn 0.000000 1.000000 0.000000
vn 0.000000 -1.000000 0.000000
vn 0.000000 -1.000000 0.000000
vn 0.000000 1.000000 0.000000
vn 0.000000 1.000000 0.000000
vn 0.000000 1.000000 0.000000
vn -1.000000 0.000000 0.000000
vn -1.000000 0.000000 0.000000
vn 0.000000 -1.000000 0.000000
vn 0.000000 -1.000000 -0.000000
vn 0.000000 -1.000000 -0.000000
vn 0.000000 -1.000000 0.000000
vn 0.000000 -1.000000 0.000000
vn 1.000000 0.000000 0.000000
vn 1.000000 0.000000 0.000000
vn 1.000000 0.000000 0.000000
vn 1.000000 0.000000 0.000000
vn 0.000000 1.000000 0.000000
vn 0.000000 1.000000 0.000000
vn 0.000000 1.000000 0.000000
vn 0.000000 1.000000 0.000000
vn 0.000000 1.000000 0.000000
vn 0.000000 1.000000 0.000000
vn 0.000000 1.000000 0.000000
vn 0.000000 1.000000 0.000000
vn 0.000000 1.000000 0.000000
vn 0.000000 1.000000 0.000000
vn 0.000000 1.000000 0.000000
vn 0.000000 1.000000 0.000000
vn 0.000000 1.000000 0.000000
vn 0.000000 1.000000 0.000000
vn 0.000000 1.000000 0.000000
vn 0.000000 1.000000 0.000000
vn 0.000000 1.000000 0.000000
vn 0.000000 1.000000 0.000000
vn 0.000000 1.000000 0.000000
vn 0.000000 1.000000 0.000000
vn 0.000000 1.000000 0.000000
vn 0.000000 1.000000 0.000000
vn 0.000000 1.000000 0.000000
vn 0.000000 1.000000 0.000000
vn 0.000000 1.000000 0.000000
vn 0.000000 1.000000 0.000000
vn 0.000000 1.000000 0.000000
vn 0.000000 1.000000 0.000000
vn 0.000000 1.000000 0.000000
vn 0.000000 1.000000 0.000000
vn 0.000000 1.000000 0.000000
vn 0.000000 1.000000 0.000000
vn 0.000000 1.000000 0.000000
vn 0.000000 1.000000 0.000000
vn 0.000000 1.000000 0.000000
vn 0.000000 1.000000 0.000000
vn 0.000000 1.000000 0.000000
vn 0.000000 1.000000 0.000000
vn 0.000000 1.000000 0.000000
vn 0.000000 1.000000 0.000000
vn 0.000000 1.000000 0.000000
vn 0.000000 1.000000 0.000000
vn 0.000000 1.000000 0.000000
vn 0.000000 1.000000 0.000000
vn 0.000000 1.000000 0.000000
vn 0.000000 1.000000 0.000000
vn 0.000000 1.000000 0.000000
vn 0.000000 1.000000 0.000000
vn 0.000000 1.000000 0.000000
vn 0.000000 1.000000 0.000000
vn 0.000000 1.000000 0.000000
vn 0.000000 1.000000 0.000000
vn 0.000000 1.000000 0.000000
vn 0.000000 1.000000 0.000000
vn 0.000000 1.000000 0.000000
vn 0.000000 1.000000 0.000000
vn 0.000000 1.000000 0.000000
vn 0.000000 1.000000 0.000000
vn 0.000000 1.000000 0.000000
vn 0.000000 1.000000 0.000000
vn 0.000000 1.000000 0.000000
vn 0.000000 1.000000 0.000000
vn 0.000000 1.000000 0.000000
vn 0.000000 1.000000 0.000000
vn 0.000000 1.000000 0.000000
vn 0.000000 1.000000 0.000000
vn 0.000000 1.000000 0.000000
vn 0.000000 1.000000 0.000000
vn 0.000000 1.000000 0.000000
vn 0.000000 1.000000 0.000000
vn 0.000000 1.000000 0.000000
vn 0.000000 1.000000 0.000000
vn 0.000000 1.000000 0.000000
vn 0.000000 1.000000 0.000000
vn 0.000000 1.000000 0.000000
vn 0.000000 1.000000 0.000000
vn 0.000000 1.000000 0.000000
vn 0.000000 1.000000 0.000000
vn 0.000000 1.000000 0.000000
vn 0.000000 1.000000 0.000000
vn 0.000000 0.000000 -1.000000
vn 0.000000 0.000000 -1.000000
vn 0.000000 0.000000 -1.000000
vn 0.000000 0.000000 -1.000000
vn 0.000000 -1.000000 -0.000000
vn 0.000000 -1.000000 0.000000
vn 0.000000 0.000000 1.000000
vn 0.000000 0.000000 1.000000
vn 0.000000 0.000000 1.000000
vn 0.000000 0.000000 1.000000
vn 0.000000 -1.000000 0.000000
vn 0.000000 -1.000000 0.000000
vn 0.000000 1.000000 0.000000
vn 0.000000 1.000000 0.000000
vn 0.000000 1.000000 0.000000
vn 0.000000 1.000000 0.000000
vn 0.000000 1.000000 0.000000
vn 0.000000 1.000000 0.000000
vn 0.000000 1.000000 0.000000
vn 0.000000 1.000000 0.000000
vn 0.000000 1.000000 0.000000
vn 0.000000 1.000000 0.000000
vn 0.000000 1.000000 0.000000
vn 0.000000 1.000000 0.000000
vn 0.000000 1.000000 0.000000
vn 0.000000 1.000000 0.000000
vn 0.000000 1.000000 0.000000
vn 0.000000 1.000000 0.000000
vn 0.000000 1.000000 0.000000
vn 0.000000 1.000000 0.000000
vn 0.000000 1.000000 0.000000
vn 0.000000 1.000000 0.000000
vn 0.000000 1.000000 0.000000
vn 0.000000 1.000000 0.000000
vn 0.000000 1.000000 0.000000
vn 0.000000 1.000000 0.000000
vn 0.000000 1.000000 0.000000
vn 0.000000 1.000000 0.000000
vn 0.000000 1.000000 0.000000
vn 0.000000 1.000000 0.000000
vn 0.000000 1.000000 0.000000
vn 0.000000 1.000000 0.000000
vn 0.000000 1.000000 0.000000
vn 0.000000 1.000000 0.000000
vn 0.000000 1.000000 0.000000
vn 0.000000 1.000000 0.000000
vn 0.000000 1.000000 0.000000
vn 0.000000 1.000000 0.000000
vn 0.000000 1.000000 0.000000
vn 0.000000 1.000000 0.000000
vn 0.000000 1.000000 0.000000
vn 0.000000 1.000000 0.000000
vn 0.000000 1.000000 0.000000
vn 0.000000 1.000000 0.000000
vn 0.000000 1.000000 0.000000
vn 0.000000 1.000000 0.000000
vn 0.000000 1.000000 0.000000
vn 0.000000 1.000000 0.000000
vn 0.000000 1.000000 0.000000
vn 0.000000 1.000000 0.000000
vn 0.000000 1.000000 0.000000
vn 0.000000 0.000000 -1.000000
vn 0.000000 0.000000 -1.000000
vn 0.000000 -1.000000 0.000000
vn 0.000000 -1.000000 0.000000
vn 0.000000 0.000000 1.000000
vn 0.000000 0.000000 1.000000
vn 1.000000 0.000000 0.000000
vn 1.000000 0.000000 0.000000
vn 1.000000 0.000000 0.000000
vn 1.000000 0.000000 0.000000
vn 0.000000 1.000000 0.000000
vn 0.000000 1.000000 0.000000
vn 0.000000 0.000000 -1.000000
vn 0.000000 0.000000 -1.000000
vn 0.000000 -1.000000 0.000000
vn 1.000000 0.000000 0.000000
vn 1.000000 0.000000 0.000000
vn 0.000000 1.000000 0.000000
vn 0.000000 0.000000 -1.000000
vn 0.000000 0.000000 -1.000000
vn 1.000000 0.000000 0.000000
vn 1.000000 0.000000 0.000000
vn 0.000000 0.000000 1.000000
vn 0.000000 0.000000 1.000000
vn 0.000000 0.000000 1.000000
vn 0.000000 0.000000 1.000000
f 121/189/1 124/190/2 123/191/3 122/192/4
f 125/1/5 121/2/6 122/3/7 126/4/8
f 125/1/9 127/5/10 124/6/11 121/2/12
f 123/31/13 124/32/14 129/33/15 128/34/16
f 122/35/17 123/36/18 130/37/19 126/38/20
f 131/7/21 125/1/5 126/4/8 132/8/22
f 131/7/23 133/9/24 127/5/10 125/1/9
f 124/6/11 127/5/10 135/10/25 134/11/26
f 136/39/27 123/36/18 128/43/28 137/44/29
f 124/6/11 134/11/26 138/18/30 129/19/31
f 123/36/18 136/39/27 139/40/32 130/37/19
f 126/38/20 130/37/19 140/41/33 132/42/34
f 141/12/35 131/7/21 132/8/22 142/13/36
f 141/12/37 143/14/38 133/9/24 131/7/23
f 135/10/25 127/5/10 133/9/24 144/15/39
f 134/11/26 135/10/25 146/16/40 145/17/41
f 134/177/42 136/178/43 137/179/44 138/180/45
f 136/39/27 148/45/46 147/46/47 139/40/32
f 130/37/19 139/40/32 49/47/48 48/48/49 51/49/50 53/50/51 55/51/52 57/52/53 59/53/54 61/54/55 63/55/56 65/56/57 67/57/58 69/58/59 71/59/60 73/60/61 75/61/62 77/62/63 79/63/64 81/64/65 83/65/66 85/66/67 87/67/68 89/68/69 92/69/70 94/70/71 96/71/72 98/72/73 101/73/74 102/74/75 104/75/76 106/76/77 108/77/78 110/78/79 112/79/80 114/80/81 116/81/82 117/82/83 119/83/84 120/84/85 118/85/86 115/86/87 113/87/88 111/88/89 109/89/90 107/90/91 105/91/92 103/92/93 100/93/94 99/94/95 97/95/96 95/96/97 93/97/98 91/98/99 90/99/100 88/100/101 86/101/102 84/102/103 82/103/104 80/104/105 78/105/106 76/106/107 74/107/108 72/108/109 70/109/110 68/110/111 66/111/112 64/112/113 62/113/114 60/114/115 58/115/116 56/116/117 54/117/118 52/118/119 50/119/120 46/120/121 47/121/122 149/122/123 140/41/33
f 132/42/34 140/41/33 150/123/124 142/124/125
f 142/13/126 150/20/127 143/14/128 141/12/129
f 144/15/39 133/9/24 143/14/38 151/21/130
f 146/16/40 135/10/25 144/15/39 152/22/131
f 136/193/132 134/194/133 145/195/134 148/196/135
f 145/17/41 146/16/40 154/23/136 153/24/137
f 148/45/46 156/125/138 155/126/139 147/46/47
f 139/40/32 147/46/47 157/127/140 149/122/123 47/121/122 44/128/141 42/129/142 40/130/143 38/131/144 36/132/145 34/133/146 32/134/147 30/135/148 28/136/149 26/137/150 24/138/151 22/139/152 20/140/153 18/141/154 16/142/155 14/143/156 12/144/157 10/145/158 8/146/159 6/147/160 4/148/161 2/149/162 1/150/163 3/151/164 5/152/165 7/153/166 9/154/167 11/155/168 13/156/169 15/157/170 17/158/171 19/159/172 21/160/173 23/161/174 25/162/175 27/163/176 29/164/177 31/165/178 33/166/179 35/167/180 37/168/181 39/169/182 41/170/183 43/171/184 45/172/185 49/47/48
f 140/41/33 149/122/123 158/173/186 150/123/124
f 143/14/128 150/20/127 158/25/187 151/21/188
f 152/22/131 144/15/39 151/21/130 159/26/189
f 154/23/136 146/16/40 152/22/131 160/27/190
f 148/196/135 145/195/134 153/197/191 156/198/192
f 153/181/193 154/182/194 155/183/195 156/184/196
f 157/127/140 147/46/47 155/126/139 161/174/197
f 149/122/123 157/127/140 162/175/198 158/173/186
f 151/21/188 158/25/187 162/28/199 159/26/200
f 160/27/190 152/22/131 159/26/189 163/29/201
f 155/183/195 154/182/194 160/185/202 161/186/203
f 162/175/198 157/127/140 161/174/197 164/176/204
f 159/26/200 162/28/199 164/30/205 163/29/206
f 161/186/203 160/185/202 163/187/207 164/188/208
f 129/199/209 138/201/210 166/202/211 165/200/212
