# This file uses centimeters as units for non-parametric coordinates.

v 0.042168 0.000000 -4.820575
v 0.042168 0.833333 -4.820575
v 0.042168 1.666667 -4.820575
v 0.042168 0.000000 -1.101427
v 0.042168 0.833333 -1.101426
v 0.042168 2.500000 -4.820575
v 0.042168 1.666667 -1.101426
v 0.626172 0.000000 0.029687
v 0.626172 0.833333 0.029687
v 0.042168 3.333333 -4.820575
v 0.042168 2.500000 -1.101426
v 0.626172 1.666667 0.029687
v 0.042168 4.166667 -4.820575
v 0.042168 3.333333 -1.101426
v 0.626172 2.500000 0.029687
v 0.042168 4.166667 -1.101426
v 0.626172 3.333333 0.029687
v 0.626172 4.166667 0.029687
v 0.610067 4.166667 -6.583702
v 0.610067 3.333333 -6.583701
v 0.610067 2.500000 -6.583702
v 0.610067 1.666667 -6.583701
v 0.610067 0.833333 -6.583702
v 0.610067 0.000000 -6.583701
v 0.042168 4.166667 -0.533495
v 0.042168 3.333333 -0.533495
v 0.042168 2.500000 -0.533495
v 0.042168 1.666667 -0.533495
v 0.042168 0.833333 -0.533495
v 0.042168 0.000000 -0.533495
v 0.042168 4.166667 -6.029747
v 0.042167 3.333333 -6.029747
v 0.042168 2.500000 -6.029747
v 0.042167 1.666667 -6.029747
v 0.042168 0.833333 -6.029747
v 0.042167 0.000000 -6.029747
vt 0.402851 0.412766
vt 0.402851 0.443204
vt 0.402851 0.473642
vt 0.682944 0.412766
vt 0.682944 0.443204
vt 0.402851 0.504080
vt 0.682944 0.473642
vt 0.776309 0.412766
vt 0.776309 0.443204
vt 0.402851 0.534518
vt 0.682944 0.504080
vt 0.776309 0.473642
vt 0.402851 0.564956
vt 0.682944 0.534518
vt 0.776309 0.504080
vt 0.682944 0.564956
vt 0.776309 0.534518
vt 0.776309 0.564956
vt 0.268955 0.564956
vt 0.268955 0.534518
vt 0.268955 0.504080
vt 0.268955 0.473642
vt 0.268955 0.443204
vt 0.268955 0.412766
vt 0.725716 0.564956
vt 0.725716 0.534518
vt 0.725716 0.504080
vt 0.725716 0.473642
vt 0.725716 0.443204
vt 0.725716 0.412766
vt 0.311787 0.564956
vt 0.311787 0.534518
vt 0.311787 0.504080
vt 0.311787 0.473642
vt 0.311787 0.443204
vt 0.311787 0.412766
vn 1.000000 0.000000 0.000000
vn 1.000000 0.000000 0.000000
vn 1.000000 0.000000 0.000000
vn 1.000000 0.000000 0.000000
vn 1.000000 0.000000 0.000000
vn 1.000000 0.000000 0.000000
vn 1.000000 0.000000 0.000000
vn 1.000000 0.000000 0.000000
vn 0.888555 0.000000 -0.458770
vn 1.000000 0.000000 0.000000
vn 1.000000 0.000000 0.000000
vn 0.888555 0.000000 -0.458770
vn 1.000000 0.000000 0.000000
vn 1.000000 0.000000 0.000000
vn 1.000000 0.000000 0.000000
vn 1.000000 0.000000 0.000000
vn 0.888555 0.000000 -0.458770
vn 1.000000 0.000000 0.000000
vn 1.000000 0.000000 0.000000
vn 0.888555 0.000000 -0.458770
vn 1.000000 0.000000 0.000000
vn 1.000000 0.000000 0.000000
vn 1.000000 0.000000 0.000000
vn 1.000000 0.000000 0.000000
vn 0.888555 0.000000 -0.458770
vn 1.000000 0.000000 0.000000
vn 1.000000 0.000000 0.000000
vn 0.888555 0.000000 -0.458770
vn 1.000000 0.000000 0.000000
vn 1.000000 0.000000 0.000000
vn 1.000000 0.000000 0.000000
vn 1.000000 0.000000 0.000000
vn 0.888555 0.000000 -0.458770
vn 1.000000 0.000000 0.000000
vn 1.000000 0.000000 0.000000
vn 0.888555 0.000000 -0.458770
vn 0.888555 0.000000 -0.458770
vn 1.000000 0.000000 0.000000
vn 1.000000 0.000000 0.000000
vn 0.888555 0.000000 -0.458770
vn 0.951843 -0.000000 0.306587
vn 0.698263 0.000000 0.715842
vn 0.698263 0.000000 0.715842
vn 0.951843 -0.000000 0.306587
vn 0.951843 0.000000 0.306587
vn 0.698263 -0.000000 0.715841
vn 0.698263 -0.000000 0.715841
vn 0.951843 0.000000 0.306587
vn 0.951843 -0.000000 0.306587
vn 0.698263 0.000000 0.715841
vn 0.698263 0.000000 0.715841
vn 0.951843 -0.000000 0.306587
vn 0.951843 0.000000 0.306587
vn 0.698263 -0.000000 0.715841
vn 0.698263 -0.000000 0.715841
vn 0.951843 0.000000 0.306586
vn 0.951843 -0.000000 0.306587
vn 0.698263 0.000000 0.715841
vn 0.698263 0.000000 0.715841
vn 0.951843 -0.000000 0.306587
vn 1.000000 0.000000 0.000000
vn 1.000000 0.000000 0.000000
vn 1.000000 0.000000 0.000000
vn 1.000000 0.000000 0.000000
vn 1.000000 0.000000 0.000000
vn 1.000000 0.000000 0.000000
vn 1.000000 0.000000 0.000000
vn 1.000000 0.000000 0.000000
vn 1.000000 0.000000 0.000000
vn 1.000000 0.000000 0.000000
vn 1.000000 0.000000 0.000000
vn 1.000000 0.000000 0.000000
vn 1.000000 0.000000 0.000000
vn 1.000000 0.000000 0.000000
vn 1.000000 0.000000 0.000000
vn 1.000000 0.000000 0.000000
vn 1.000000 0.000000 0.000000
vn 1.000000 0.000000 0.000000
vn 1.000000 0.000000 0.000000
vn 1.000000 0.000000 0.000000
f 4/4/1 1/1/2 2/2/3 5/5/4
f 5/5/5 2/2/6 3/3/7 7/7/8
f 30/30/9 4/4/10 5/5/11 29/29/12
f 7/7/13 3/3/14 6/6/15 11/11/16
f 29/29/17 5/5/18 7/7/19 28/28/20
f 11/11/21 6/6/22 10/10/23 14/14/24
f 28/28/25 7/7/26 11/11/27 27/27/28
f 14/14/29 10/10/30 13/13/31 16/16/32
f 27/27/33 11/11/34 14/14/35 26/26/36
f 26/26/37 14/14/38 16/16/39 25/25/40
f 32/32/41 20/20/42 19/19/43 31/31/44
f 33/33/45 21/21/46 20/20/47 32/32/48
f 34/34/49 22/22/50 21/21/51 33/33/52
f 35/35/53 23/23/54 22/22/55 34/34/56
f 36/36/57 24/24/58 23/23/59 35/35/60
f 17/17/61 26/26/37 25/25/40 18/18/62
f 15/15/63 27/27/33 26/26/36 17/17/64
f 12/12/65 28/28/25 27/27/28 15/15/66
f 9/9/67 29/29/17 28/28/20 12/12/68
f 8/8/69 30/30/9 29/29/12 9/9/70
f 10/10/71 32/32/41 31/31/44 13/13/72
f 6/6/73 33/33/45 32/32/48 10/10/74
f 3/3/75 34/34/49 33/33/52 6/6/76
f 2/2/77 35/35/53 34/34/56 3/3/78
f 1/1/79 36/36/57 35/35/60 2/2/80
