# This file uses centimeters as units for non-parametric coordinates.

v 23.131863 0.000949 -0.004693
v 23.327667 0.000949 -0.001574
v 24.289661 0.000949 -0.001950
v 25.251656 0.000949 -0.002327
v 25.491438 0.000949 -0.002794
v 25.491438 1.389907 -0.002470
v 23.131863 1.389907 -0.004695
v 23.327667 1.389907 -0.001576
v 24.289663 1.389907 -0.001952
v 25.251656 1.389907 -0.002330
v 25.488924 0.000949 -0.752051
v 25.488924 0.001476 -0.752051
v 23.133614 0.000949 -1.221798
v 23.133614 0.000949 -0.228649
v 23.133614 0.000949 -2.214948
v 23.131863 0.000949 -2.435500
v 23.327667 0.000949 -2.432381
v 24.289661 0.000949 -2.432757
v 25.251656 0.000949 -2.433134
v 25.491438 0.000949 -2.433601
v 25.488924 0.000949 0.001451
v 25.488924 1.389766 0.001451
v 25.488924 1.389766 -0.608153
v 25.488924 0.001476 -0.608153
v 25.488924 0.001476 -1.456217
v 25.488924 1.389766 -1.456217
v 25.491438 1.389766 -2.433275
v 23.133614 0.001476 -1.221798
v 23.133614 0.001476 -0.778561
v 23.133614 1.389766 -0.778561
v 23.133614 1.389766 -0.228649
v 23.133614 1.389766 -2.214948
v 23.133614 1.389766 -1.626626
v 23.133614 0.001476 -1.626626
v 23.133614 1.389766 0.001451
v 23.133614 0.000949 0.001451
v 23.131863 1.389766 -2.435500
v 23.327667 1.389766 -2.432381
v 24.289663 1.389766 -2.432757
v 25.251656 1.389766 -2.433134
vt 0.000000 1.000000
vt 0.082983 1.000000
vt 0.082983 0.000000
vt 0.000000 0.000000
vt 0.490683 1.000000
vt 0.490682 0.000000
vt 0.898379 1.000000
vt 0.898379 0.000000
vt 1.000000 1.000000
vt 1.000000 0.000000
vt 0.309199 0.000000
vt -0.000000 0.000000
vt -0.000000 1.000000
vt 0.250150 1.000000
vt 0.250150 0.000380
vt 0.309199 0.000380
vt 0.999087 1.000000
vt 0.999221 0.000000
vt 0.598153 0.000380
vt 0.598153 1.000000
vt 0.501959 0.000000
vt 0.501959 0.000380
vt 0.320077 0.000380
vt 0.320077 1.000000
vt 0.094421 1.000000
vt 0.094421 0.000000
vt 0.909497 0.000000
vt 0.909497 1.000000
vt 0.668080 1.000000
vt 0.668080 0.000380
vt -0.000000 1.000000
vt -0.000000 0.000000
vt 1.000000 0.000000
vt 1.000000 1.000000
vt 0.000000 0.999898
vt 0.000000 0.000000
vt 0.082983 0.000000
vt 0.082983 0.999898
vt 0.490682 0.000000
vt 0.490683 0.999898
vt 0.898379 0.000000
vt 0.898379 0.999898
vt 1.000000 0.000000
vt 1.000000 0.999898
vn 0.015926 -0.000002 -0.999873
vn 0.015926 -0.000002 -0.999873
vn 0.015926 -0.000002 -0.999873
vn 0.015926 -0.000002 -0.999873
vn -0.000391 -0.000002 -1.000000
vn -0.000391 -0.000002 -1.000000
vn -0.000391 -0.000002 -1.000000
vn -0.000391 -0.000002 -1.000000
vn -0.000392 -0.000002 -1.000000
vn -0.000392 -0.000002 -1.000000
vn -0.000392 -0.000002 -1.000000
vn -0.000392 -0.000002 -1.000000
vn -0.001267 0.000116 -0.999999
vn -0.001267 0.000116 -0.999999
vn -0.001267 0.000116 -0.999999
vn -0.001267 0.000116 -0.999999
vn -0.999999 -0.000670 -0.001584
vn -1.000000 0.000000 0.000000
vn -1.000000 0.000000 0.000000
vn -1.000000 0.000000 0.000000
vn -1.000000 0.000000 0.000000
vn -0.999999 -0.000670 -0.001584
vn -0.971762 -0.000575 0.235963
vn -0.971760 -0.001105 0.235969
vn -0.999999 -0.000670 -0.001584
vn -0.999999 -0.000670 -0.001584
vn -0.999996 -0.001088 -0.002571
vn -0.999997 -0.000543 -0.002572
vn 1.000000 0.000002 0.000000
vn 0.830871 0.556464 0.000000
vn 0.506092 0.000000 -0.862479
vn 0.451158 0.000000 -0.892444
vn 1.000000 0.000000 0.000000
vn 1.000000 0.000000 0.000000
vn 0.999998 0.000003 -0.002164
vn 0.999997 0.000002 -0.002618
vn 1.000000 0.000003 0.000000
vn 0.839249 0.543748 0.000000
vn 0.830871 0.556464 0.000000
vn 1.000000 0.000002 0.000000
vn 1.000000 0.000000 0.000000
vn 1.000000 0.000000 0.000000
vn 1.000000 0.000000 -0.000002
vn 1.000000 0.000000 0.000000
vn 0.999997 0.000002 -0.002618
vn 0.999998 0.000003 -0.002164
vn 0.746075 0.000000 0.665862
vn 0.746073 0.000000 0.665864
vn 0.746073 0.000000 0.665864
vn 0.746075 0.000000 0.665862
vn -0.002369 0.000000 0.999997
vn -0.002369 0.000000 0.999997
vn -0.002369 0.000000 0.999997
vn 0.000392 0.000000 1.000000
vn 0.000392 0.000000 1.000000
vn -0.002369 0.000000 0.999997
vn 0.000392 0.000000 1.000000
vn 0.000566 -0.000039 1.000000
vn 0.000430 -0.000039 1.000000
vn 0.000392 0.000000 1.000000
vn 0.000566 -0.000039 1.000000
vn -0.971760 -0.001105 0.235969
vn -0.971762 -0.000575 0.235963
vn 0.000430 -0.000039 1.000000
f 7/1/1 8/2/2 2/3/3 1/4/4
f 2/3/5 8/2/6 9/5/7 3/6/8
f 3/6/9 9/5/10 10/7/11 4/8/12
f 4/8/13 10/7/14 6/9/15 5/10/16
f 11/11/17 21/12/18 22/13/19 23/14/20 24/15/21 12/16/22
f 27/17/23 20/18/24 11/11/25 12/16/26 25/19/27 26/20/28
f 13/21/29 28/22/30 29/23/31 30/24/32 31/25/33 14/26/34
f 15/27/35 32/28/36 33/29/37 34/30/38 28/22/39 13/21/40
f 14/26/41 31/25/42 35/31/43 36/32/44
f 32/28/45 15/27/46 16/33/47 37/34/48
f 37/35/49 16/36/50 17/37/51 38/38/52
f 17/37/53 18/39/54 39/40/55 38/38/56
f 18/39/57 19/41/58 40/42/59 39/40/60
f 19/41/61 20/43/62 27/44/63 40/42/64
