# This file uses centimeters as units for non-parametric coordinates.

v 0.000000 0.000000 0.000000
v 1.250000 0.000000 0.000000
v 0.000000 1.180000 0.000000
v 1.250000 1.180000 0.000000
v 0.000000 1.180000 -1.210000
v 1.250000 1.180000 -1.210000
v 0.000000 0.000000 -1.210000
v 1.250000 0.000000 -1.210000
v 0.308237 0.070685 0.000000
v 0.308237 1.180000 0.000000
v 0.308237 1.180000 -1.210000
v 0.308237 0.070685 -1.210000
v 0.910739 0.070685 0.000000
v 0.910739 1.180000 0.000000
v 0.910739 1.180000 -1.210000
v 0.910739 0.070685 -1.210000
v 0.277944 0.000000 0.000000
v 0.277944 1.180000 0.000000
v 0.277944 1.180000 -1.210000
v 0.277944 0.000000 -1.210000
v 0.951130 0.000000 0.000000
v 0.951130 1.180000 0.000000
v 0.951130 1.180000 -1.210000
v 0.951130 0.000000 -1.210000
vt 0.375000 0.000000
vt 0.625000 0.000000
vt 0.375000 0.250000
vt 0.625000 0.250000
vt 0.375000 0.500000
vt 0.625000 0.500000
vt 0.375000 0.750000
vt 0.625000 0.750000
vt 0.375000 1.000000
vt 0.625000 1.000000
vt 0.875000 0.000000
vt 0.875000 0.250000
vt 0.125000 0.000000
vt 0.125000 0.250000
vt 0.436647 0.000000
vt 0.436647 1.000000
vt 0.436647 0.250000
vt 0.436647 0.500000
vt 0.436647 0.750000
vt 0.557148 0.000000
vt 0.557148 1.000000
vt 0.557148 0.250000
vt 0.557148 0.500000
vt 0.557148 0.750000
vt 0.430589 0.000000
vt 0.430589 1.000000
vt 0.430589 0.250000
vt 0.430589 0.500000
vt 0.430589 0.750000
vt 0.565226 0.000000
vt 0.565226 1.000000
vt 0.565226 0.250000
vt 0.565226 0.500000
vt 0.565226 0.750000
vn 0.000000 0.000000 1.000000
vn 0.000000 0.000000 1.000000
vn 0.000000 0.000000 1.000000
vn 0.000000 0.000000 1.000000
vn 0.000000 1.000000 0.000000
vn 0.000000 1.000000 0.000000
vn 0.000000 1.000000 0.000000
vn 0.000000 1.000000 0.000000
vn 0.000000 0.000000 -1.000000
vn 0.000000 0.000000 -1.000000
vn 0.000000 0.000000 -1.000000
vn 0.000000 0.000000 -1.000000
vn 0.000000 -1.000000 0.000000
vn 0.223517 -0.974700 0.000000
vn 0.223517 -0.974700 0.000000
vn 0.000000 -1.000000 0.000000
vn 1.000000 0.000000 0.000000
vn 1.000000 0.000000 0.000000
vn 1.000000 0.000000 0.000000
vn 1.000000 0.000000 0.000000
vn -1.000000 0.000000 0.000000
vn -1.000000 0.000000 0.000000
vn -1.000000 0.000000 0.000000
vn -1.000000 0.000000 0.000000
vn 0.000000 0.000000 1.000000
vn 0.000000 0.000000 1.000000
vn 0.000000 0.000000 1.000000
vn 0.000000 0.000000 1.000000
vn 0.000000 1.000000 0.000000
vn 0.000000 1.000000 0.000000
vn 0.000000 1.000000 0.000000
vn 0.000000 1.000000 0.000000
vn 0.000000 0.000000 -1.000000
vn 0.000000 0.000000 -1.000000
vn -0.000000 0.000000 -1.000000
vn -0.000000 0.000000 -1.000000
vn 0.111012 -0.993819 0.000000
vn 0.111012 -0.993819 0.000000
vn -0.109289 -0.994010 0.000000
vn -0.109289 -0.994010 0.000000
vn 0.000000 0.000000 1.000000
vn 0.000000 0.000000 1.000000
vn 0.000000 1.000000 0.000000
vn 0.000000 1.000000 0.000000
vn -0.000000 0.000000 -1.000000
vn -0.000000 0.000000 -1.000000
vn -0.203968 -0.978978 0.000000
vn -0.203968 -0.978978 0.000000
vn 0.000000 0.000000 1.000000
vn 0.000000 0.000000 1.000000
vn 0.000000 1.000000 0.000000
vn 0.000000 1.000000 0.000000
vn 0.000000 0.000000 -1.000000
vn 0.000000 0.000000 -1.000000
vn 0.000000 -1.000000 0.000000
vn 0.000000 -1.000000 0.000000
f 1/1/1 17/25/2 18/27/3 3/3/4
f 3/3/5 18/27/6 19/28/7 5/5/8
f 5/5/9 19/28/10 20/29/11 7/7/12
f 7/7/13 20/29/14 17/26/15 1/9/16
f 2/2/17 8/11/18 6/12/19 4/4/20
f 7/13/21 1/1/22 3/3/23 5/14/24
f 9/15/25 13/20/26 14/22/27 10/17/28
f 11/18/29 10/17/30 14/22/31 15/23/32
f 12/19/33 11/18/34 15/23/35 16/24/36
f 9/16/37 12/19/38 16/24/39 13/21/40
f 13/20/26 21/30/41 22/32/42 14/22/27
f 15/23/32 14/22/31 22/32/43 23/33/44
f 16/24/36 15/23/35 23/33/45 24/34/46
f 13/21/40 16/24/39 24/34/47 21/31/48
f 17/25/2 9/15/25 10/17/28 18/27/3
f 19/28/7 18/27/6 10/17/30 11/18/29
f 20/29/11 19/28/10 11/18/34 12/19/33
f 17/26/15 20/29/14 12/19/38 9/16/37
f 21/30/41 2/2/49 4/4/50 22/32/42
f 23/33/44 22/32/43 4/4/51 6/6/52
f 24/34/46 23/33/45 6/6/53 8/8/54
f 21/31/48 24/34/47 8/8/55 2/10/56
v 0.310000 0.310000 -1.169644
v 0.910000 0.310000 -1.169644
v 0.310000 0.910000 -1.169644
v 0.910000 0.910000 -1.169644
v 0.310000 0.910000 -1.231762
v 0.910000 0.910000 -1.231762
v 0.310000 0.310000 -1.231762
v 0.910000 0.310000 -1.231762
vt 0.375000 0.000000
vt 0.625000 0.000000
vt 0.375000 0.250000
vt 0.625000 0.250000
vt 0.375000 0.500000
vt 0.625000 0.500000
vt 0.375000 0.750000
vt 0.625000 0.750000
vt 0.375000 1.000000
vt 0.625000 1.000000
vt 0.875000 0.000000
vt 0.875000 0.250000
vt 0.125000 0.000000
vt 0.125000 0.250000
vn 0.000000 0.000000 1.000000
vn 0.000000 0.000000 1.000000
vn 0.000000 0.000000 1.000000
vn 0.000000 0.000000 1.000000
vn 0.000000 1.000000 0.000000
vn 0.000000 1.000000 0.000000
vn 0.000000 1.000000 0.000000
vn 0.000000 1.000000 0.000000
vn 0.000000 0.000000 -1.000000
vn 0.000000 0.000000 -1.000000
vn 0.000000 0.000000 -1.000000
vn 0.000000 0.000000 -1.000000
vn 0.000000 -1.000000 0.000000
vn 0.000000 -1.000000 0.000000
vn 0.000000 -1.000000 0.000000
vn 0.000000 -1.000000 0.000000
vn 1.000000 0.000000 0.000000
vn 1.000000 0.000000 0.000000
vn 1.000000 0.000000 0.000000
vn 1.000000 0.000000 0.000000
vn -1.000000 0.000000 0.000000
vn -1.000000 0.000000 0.000000
vn -1.000000 0.000000 0.000000
vn -1.000000 0.000000 0.000000
f 25/35/57 26/36/58 28/38/59 27/37/60
f 27/37/61 28/38/62 30/40/63 29/39/64
f 29/39/65 30/40/66 32/42/67 31/41/68
f 31/41/69 32/42/70 26/44/71 25/43/72
f 26/36/73 32/45/74 30/46/75 28/38/76
f 31/47/77 25/35/78 27/37/79 29/48/80
v 0.060000 1.046234 -0.605000
v 0.220000 1.046234 -0.605000
v 0.060000 1.190276 -0.605000
v 0.220000 1.190276 -0.605000
v 0.060000 1.190276 -0.645000
v 0.220000 1.190276 -0.645000
v 0.060000 1.046234 -0.645000
v 0.220000 1.046234 -0.645000
vt 0.375000 0.000000
vt 0.625000 0.000000
vt 0.375000 0.250000
vt 0.625000 0.250000
vt 0.375000 0.500000
vt 0.625000 0.500000
vt 0.375000 0.750000
vt 0.625000 0.750000
vt 0.375000 1.000000
vt 0.625000 1.000000
vt 0.875000 0.000000
vt 0.875000 0.250000
vt 0.125000 0.000000
vt 0.125000 0.250000
vn 0.000000 0.000000 1.000000
vn 0.000000 0.000000 1.000000
vn 0.000000 0.000000 1.000000
vn 0.000000 0.000000 1.000000
vn 0.000000 1.000000 0.000000
vn 0.000000 1.000000 0.000000
vn 0.000000 1.000000 0.000000
vn 0.000000 1.000000 0.000000
vn 0.000000 0.000000 -1.000000
vn 0.000000 0.000000 -1.000000
vn 0.000000 0.000000 -1.000000
vn 0.000000 0.000000 -1.000000
vn 0.000000 -1.000000 0.000000
vn 0.000000 -1.000000 0.000000
vn 0.000000 -1.000000 0.000000
vn 0.000000 -1.000000 0.000000
vn 1.000000 0.000000 0.000000
vn 1.000000 0.000000 0.000000
vn 1.000000 0.000000 0.000000
vn 1.000000 0.000000 0.000000
vn -1.000000 0.000000 0.000000
vn -1.000000 0.000000 0.000000
vn -1.000000 0.000000 0.000000
vn -1.000000 0.000000 0.000000
f 33/49/81 34/50/82 36/52/83 35/51/84
f 35/51/85 36/52/86 38/54/87 37/53/88
f 37/53/89 38/54/90 40/56/91 39/55/92
f 39/55/93 40/56/94 34/58/95 33/57/96
f 34/50/97 40/59/98 38/60/99 36/52/100
f 39/61/101 33/49/102 35/51/103 37/62/104
v 1.086697 1.043085 -0.130000
v 0.958915 1.043085 -0.226290
v 1.086697 1.187126 -0.130000
v 0.958915 1.187126 -0.226290
v 1.062624 1.187126 -0.098055
v 0.934842 1.187126 -0.194345
v 1.062624 1.043085 -0.098055
v 0.934842 1.043085 -0.194345
v 1.071416 1.187126 -0.141515
v 1.047343 1.187126 -0.109570
v 1.047343 1.043085 -0.109570
v 1.071416 1.043085 -0.141515
v 1.057965 1.276859 -0.151651
v 1.042683 1.276859 -0.163167
v 1.018611 1.276859 -0.131221
v 1.033892 1.276859 -0.119706
vt 0.375000 0.000000
vt 0.625000 0.000000
vt 0.375000 0.250000
vt 0.625000 0.250000
vt 0.375000 0.500000
vt 0.625000 0.500000
vt 0.375000 0.750000
vt 0.625000 0.750000
vt 0.375000 1.000000
vt 0.625000 1.000000
vt 0.875000 0.000000
vt 0.875000 0.250000
vt 0.125000 0.000000
vt 0.125000 0.250000
vt 0.404897 0.250000
vt 0.404897 0.500000
vt 0.404897 0.750000
vt 0.404897 0.000000
vt 0.404897 1.000000
vt 0.375000 0.250000
vt 0.404897 0.250000
vt 0.404897 0.500000
vt 0.375000 0.500000
vn 0.601818 0.000000 -0.798633
vn 0.601815 0.000000 -0.798635
vn 0.601815 -0.000000 -0.798635
vn 0.601818 -0.000000 -0.798633
vn -0.000000 1.000000 0.000000
vn -0.000000 1.000000 0.000000
vn -0.000000 1.000000 0.000000
vn -0.000000 1.000000 0.000000
vn -0.601815 0.000001 0.798635
vn -0.601815 0.000000 0.798635
vn -0.601815 0.000000 0.798635
vn -0.601815 0.000000 0.798635
vn 0.000000 -1.000000 0.000000
vn 0.000000 -1.000000 0.000000
vn 0.000000 -1.000000 0.000000
vn 0.000000 -1.000000 0.000000
vn -0.798635 0.000000 -0.601815
vn -0.798635 0.000000 -0.601815
vn -0.798635 0.000000 -0.601815
vn -0.798635 0.000000 -0.601815
vn 0.798634 0.000000 0.601817
vn 0.798634 0.000000 0.601817
vn 0.789342 0.152105 0.594814
vn 0.789342 0.152104 0.594814
vn 0.000000 1.000000 -0.000000
vn 0.000000 1.000000 -0.000000
vn 0.000000 1.000000 -0.000000
vn 0.000000 1.000000 -0.000000
vn -0.601815 0.000000 0.798635
vn -0.601815 0.000000 0.798635
vn 0.000000 -1.000000 0.000000
vn 0.000000 -1.000000 0.000000
vn 0.601815 0.000000 -0.798636
vn 0.601815 0.000000 -0.798636
vn 0.601818 -0.000000 -0.798633
vn 0.601818 -0.000000 -0.798633
vn -0.741276 -0.372133 -0.558593
vn -0.741276 -0.372133 -0.558593
vn -0.741276 -0.372133 -0.558593
vn -0.741276 -0.372133 -0.558593
vn -0.601815 0.000002 0.798635
vn -0.601815 0.000002 0.798635
vn 0.741276 0.372134 0.558594
vn 0.741276 0.372133 0.558594
f 41/63/105 52/80/106 49/77/107 43/65/108
f 53/82/109 54/83/110 55/84/111 56/85/112
f 45/67/113 50/78/114 51/79/115 47/69/116
f 47/69/117 51/79/118 52/81/119 41/71/120
f 42/64/121 48/73/122 46/74/123 44/66/124
f 47/75/125 41/63/126 43/65/127 45/76/128
f 49/77/129 44/66/130 46/68/131 50/78/132
f 51/79/115 50/78/114 46/68/133 48/70/134
f 52/81/119 51/79/118 48/70/135 42/72/136
f 49/77/107 52/80/106 42/64/137 44/66/138
f 43/65/108 49/77/107 54/83/139 53/82/140
f 49/77/141 50/78/142 55/84/143 54/83/144
f 50/78/114 45/67/113 56/85/145 55/84/146
f 45/67/128 43/65/127 53/82/147 56/85/148
v 1.086697 1.043085 -1.070000
v 0.958915 1.043085 -0.973710
v 1.086697 1.187126 -1.070000
v 0.958915 1.187126 -0.973710
v 1.110769 1.187126 -1.038055
v 0.982988 1.187126 -0.941764
v 1.110769 1.043085 -1.038055
v 0.982988 1.043085 -0.941764
v 1.072765 1.187126 -1.059502
v 1.096837 1.187126 -1.027556
v 1.096837 1.043085 -1.027556
v 1.072765 1.043085 -1.059502
v 1.059600 1.276859 -1.049581
v 1.045668 1.276859 -1.039083
v 1.069740 1.276859 -1.007137
v 1.083672 1.276859 -1.017636
vt 0.375000 0.000000
vt 0.625000 0.000000
vt 0.375000 0.250000
vt 0.625000 0.250000
vt 0.375000 0.500000
vt 0.625000 0.500000
vt 0.375000 0.750000
vt 0.625000 0.750000
vt 0.375000 1.000000
vt 0.625000 1.000000
vt 0.875000 0.000000
vt 0.875000 0.250000
vt 0.125000 0.000000
vt 0.125000 0.250000
vt 0.394314 0.250000
vt 0.394314 0.500000
vt 0.394314 0.750000
vt 0.394314 0.000000
vt 0.394314 1.000000
vt 0.375000 0.250000
vt 0.394314 0.250000
vt 0.394314 0.500000
vt 0.375000 0.500000
vn -0.601815 0.000000 -0.798635
vn -0.601815 0.000000 -0.798635
vn -0.601815 0.000000 -0.798635
vn -0.601815 0.000000 -0.798635
vn 0.000000 1.000000 0.000000
vn 0.000000 1.000000 0.000000
vn 0.000000 1.000000 0.000000
vn 0.000000 1.000000 0.000000
vn 0.601812 -0.000001 0.798638
vn 0.601815 -0.000000 0.798636
vn 0.601815 0.000000 0.798636
vn 0.601812 0.000000 0.798638
vn 0.000000 -1.000000 0.000000
vn 0.000000 -1.000000 0.000000
vn 0.000000 -1.000000 0.000000
vn 0.000000 -1.000000 0.000000
vn -0.798635 0.000000 0.601815
vn -0.798635 0.000000 0.601815
vn -0.798635 0.000000 0.601815
vn -0.798635 0.000000 0.601815
vn 0.798635 0.000000 -0.601815
vn 0.798635 0.000000 -0.601815
vn 0.790355 0.143631 -0.595575
vn 0.790355 0.143631 -0.595575
vn -0.000000 1.000000 -0.000000
vn -0.000000 1.000000 -0.000000
vn -0.000000 1.000000 -0.000000
vn -0.000000 1.000000 -0.000000
vn 0.601815 0.000000 0.798635
vn 0.601815 0.000000 0.798635
vn 0.000000 -1.000000 0.000000
vn 0.000000 -1.000000 0.000000
vn -0.601815 0.000000 -0.798635
vn -0.601815 0.000000 -0.798635
vn -0.601815 0.000000 -0.798635
vn -0.601815 0.000000 -0.798635
vn -0.747022 -0.353671 0.562917
vn -0.747022 -0.353671 0.562917
vn -0.747022 -0.353671 0.562917
vn -0.747022 -0.353671 0.562917
vn 0.601812 -0.000002 0.798638
vn 0.601812 -0.000002 0.798638
vn 0.747019 0.353671 -0.562920
vn 0.747019 0.353671 -0.562920
f 57/86/149 68/103/150 65/100/151 59/88/152
f 69/105/153 70/106/154 71/107/155 72/108/156
f 61/90/157 66/101/158 67/102/159 63/92/160
f 63/92/161 67/102/162 68/104/163 57/94/164
f 58/87/165 64/96/166 62/97/167 60/89/168
f 63/98/169 57/86/170 59/88/171 61/99/172
f 65/100/173 60/89/174 62/91/175 66/101/176
f 67/102/159 66/101/158 62/91/177 64/93/178
f 68/104/163 67/102/162 64/93/179 58/95/180
f 65/100/151 68/103/150 58/87/181 60/89/182
f 59/88/152 65/100/151 70/106/183 69/105/184
f 65/100/185 66/101/186 71/107/187 70/106/188
f 66/101/158 61/90/157 72/108/189 71/107/190
f 61/90/172 59/88/171 69/105/191 72/108/192
v 0.266217 1.656191 -0.737769
v 0.000217 1.519202 -0.737769
v 0.266217 1.657202 -0.737769
v 0.000217 1.657202 -0.737769
v 0.266217 1.657202 -0.517769
v 0.000217 1.657202 -0.517769
v 0.266217 1.656191 -0.517769
v 0.000217 1.519202 -0.517769
vt 0.375000 0.000000
vt 0.625000 0.000000
vt 0.375000 0.250000
vt 0.625000 0.250000
vt 0.375000 0.500000
vt 0.625000 0.500000
vt 0.375000 0.750000
vt 0.625000 0.750000
vt 0.375000 1.000000
vt 0.625000 1.000000
vt 0.875000 0.000000
vt 0.875000 0.250000
vt 0.125000 0.000000
vt 0.125000 0.250000
vn 0.000000 0.000000 -1.000000
vn 0.000000 0.000000 -1.000000
vn 0.000000 0.000000 -1.000000
vn 0.000000 0.000000 -1.000000
vn 0.000000 1.000000 -0.000000
vn 0.000000 1.000000 -0.000000
vn 0.000000 1.000000 -0.000000
vn 0.000000 1.000000 -0.000000
vn -0.000000 0.000000 1.000000
vn -0.000000 0.000000 1.000000
vn -0.000000 0.000000 1.000000
vn -0.000000 0.000000 1.000000
vn 0.457848 -0.889031 0.000000
vn 0.457848 -0.889031 0.000000
vn 0.457848 -0.889031 0.000000
vn 0.457848 -0.889031 0.000000
vn -1.000000 0.000000 -0.000000
vn -1.000000 0.000000 -0.000000
vn -1.000000 0.000000 -0.000000
vn -1.000000 0.000000 -0.000000
vn 1.000000 0.000000 0.000000
vn 1.000000 0.000000 0.000000
vn 1.000000 0.000000 0.000000
vn 1.000000 0.000000 0.000000
f 73/109/193 74/110/194 76/112/195 75/111/196
f 75/111/197 76/112/198 78/114/199 77/113/200
f 77/113/201 78/114/202 80/116/203 79/115/204
f 79/115/205 80/116/206 74/118/207 73/117/208
f 74/110/209 80/119/210 78/120/211 76/112/212
f 79/121/213 73/109/214 75/111/215 77/122/216
